3100 0 11 0           
20 CST MICROWAVE STUDIO 14 ACIS 31.0.1 NT 24 Mon Mar 27 16:12:23 2023 
1 9.9999999999999995e-07 1e-10 
T @77 2KXUECGGZPXMFNH_U82P9ZW9Z9MU4KQCSA5VKG6F3CTCNE693B_CQJ5U2CUKRGQXADUKER6EQC7VJ 
name_attrib-gen-attrib $-1 -1 $-1 $-1 $-1 2 1 1 1 1 1 1 1 1 1 1 1 1 1 1 1 1 1 @17 VirtualBackground #
body $11 -1 -1 $-1 0 $12 $-1 $-1 T 0 1.5 -52.5 0 27.5 -47.5 #
body $13 -1 -1 $-1 0 $14 $-1 $-1 T 0 22.5 -47.5 0 27.5 -26.5 #
body $15 -1 -1 $-1 0 $16 $-1 $-1 T 0 22.5 -23.5 0 27.5 23.5 #
body $17 -1 -1 $-1 0 $18 $-1 $-1 T 0 1.5 47.5 0 27.5 52.5 #
body $19 -1 -1 $-1 0 $20 $-1 $-1 T 0 22.5 26.5 0 27.5 47.5 #
body $21 -1 -1 $-1 0 $22 $-1 $-1 T 0 -27.5 -52.5 0 -1.5 -47.5 #
body $23 -1 -1 $-1 0 $24 $-1 $-1 T 0 -27.5 -47.5 0 -22.5 -26.5 #
body $25 -1 -1 $-1 0 $26 $-1 $-1 T 0 -27.5 -23.5 0 -22.5 23.5 #
body $27 -1 -1 $-1 0 $28 $-1 $-1 T 0 -27.5 26.5 0 -22.5 47.5 #
body $29 -1 -1 $-1 0 $30 $-1 $-1 T 0 -27.5 47.5 0 -1.5 52.5 #
rgb_color-st-attrib $-1 -1 $31 $-1 $1 2 1 2 1 1 1 1 1 1 1 1 1 1 1 0 1 1 1 0.80000001192092896 0.80000001192092896 0.80000001192092896 #
lump $-1 -1 -1 $-1 $-1 $32 $1 T 0 1.5 -52.5 0 27.5 -47.5 #
rgb_color-st-attrib $-1 -1 $33 $-1 $2 2 1 2 1 1 1 1 1 1 1 1 1 1 1 0 1 1 1 0.80000001192092896 0.80000001192092896 0.80000001192092896 #
lump $-1 -1 -1 $-1 $-1 $34 $2 T 0 22.5 -47.5 0 27.5 -26.5 #
rgb_color-st-attrib $-1 -1 $35 $-1 $3 2 1 2 1 1 1 1 1 1 1 1 1 1 1 0 1 1 1 0.80000001192092896 0.80000001192092896 0.80000001192092896 #
lump $-1 -1 -1 $-1 $-1 $36 $3 T 0 22.5 -23.5 0 27.5 23.5 #
rgb_color-st-attrib $-1 -1 $37 $-1 $4 2 1 2 1 1 1 1 1 1 1 1 1 1 1 0 1 1 1 0.80000001192092896 0.80000001192092896 0.80000001192092896 #
lump $-1 -1 -1 $-1 $-1 $38 $4 T 0 1.5 47.5 0 27.5 52.5 #
rgb_color-st-attrib $-1 -1 $39 $-1 $5 2 1 2 1 1 1 1 1 1 1 1 1 1 1 0 1 1 1 0.80000001192092896 0.80000001192092896 0.80000001192092896 #
lump $-1 -1 -1 $-1 $-1 $40 $5 T 0 22.5 26.5 0 27.5 47.5 #
rgb_color-st-attrib $-1 -1 $41 $-1 $6 2 1 2 1 1 1 1 1 1 1 1 1 1 1 0 1 1 1 0.80000001192092896 0.80000001192092896 0.80000001192092896 #
lump $-1 -1 -1 $-1 $-1 $42 $6 T 0 -27.5 -52.5 0 -1.5 -47.5 #
rgb_color-st-attrib $-1 -1 $43 $-1 $7 2 1 2 1 1 1 1 1 1 1 1 1 1 1 0 1 1 1 0.80000001192092896 0.80000001192092896 0.80000001192092896 #
lump $-1 -1 -1 $-1 $-1 $44 $7 T 0 -27.5 -47.5 0 -22.5 -26.5 #
rgb_color-st-attrib $-1 -1 $45 $-1 $8 2 1 2 1 1 1 1 1 1 1 1 1 1 1 0 1 1 1 0.80000001192092896 0.80000001192092896 0.80000001192092896 #
lump $-1 -1 -1 $-1 $-1 $46 $8 T 0 -27.5 -23.5 0 -22.5 23.5 #
rgb_color-st-attrib $-1 -1 $47 $-1 $9 2 1 2 1 1 1 1 1 1 1 1 1 1 1 0 1 1 1 0.80000001192092896 0.80000001192092896 0.80000001192092896 #
lump $-1 -1 -1 $-1 $-1 $48 $9 T 0 -27.5 26.5 0 -22.5 47.5 #
rgb_color-st-attrib $-1 -1 $49 $-1 $10 2 1 2 1 1 1 1 1 1 1 1 1 1 1 0 1 1 1 0.80000001192092896 0.80000001192092896 0.80000001192092896 #
lump $-1 -1 -1 $-1 $-1 $50 $10 T 0 -27.5 47.5 0 -1.5 52.5 #
name_attrib-gen-attrib $-1 -1 $51 $11 $1 2 1 1 1 1 1 1 1 1 1 1 1 1 1 0 1 1 1 @27 c0.800000 0.800000 0.800000 #
shell $-1 -1 -1 $-1 $-1 $-1 $52 $-1 $12 T 0 1.5 -52.5 0 27.5 -47.5 #
name_attrib-gen-attrib $-1 -1 $53 $13 $2 2 1 1 1 1 1 1 1 1 1 1 1 1 1 0 1 1 1 @27 c0.800000 0.800000 0.800000 #
shell $-1 -1 -1 $-1 $-1 $-1 $54 $-1 $14 T 0 22.5 -47.5 0 27.5 -26.5 #
name_attrib-gen-attrib $-1 -1 $55 $15 $3 2 1 1 1 1 1 1 1 1 1 1 1 1 1 0 1 1 1 @27 c0.800000 0.800000 0.800000 #
shell $-1 -1 -1 $-1 $-1 $-1 $56 $-1 $16 T 0 22.5 -23.5 0 27.5 23.5 #
name_attrib-gen-attrib $-1 -1 $57 $17 $4 2 1 1 1 1 1 1 1 1 1 1 1 1 1 0 1 1 1 @27 c0.800000 0.800000 0.800000 #
shell $-1 -1 -1 $-1 $-1 $-1 $58 $-1 $18 T 0 1.5 47.5 0 27.5 52.5 #
name_attrib-gen-attrib $-1 -1 $59 $19 $5 2 1 1 1 1 1 1 1 1 1 1 1 1 1 0 1 1 1 @27 c0.800000 0.800000 0.800000 #
shell $-1 -1 -1 $-1 $-1 $-1 $60 $-1 $20 T 0 22.5 26.5 0 27.5 47.5 #
name_attrib-gen-attrib $-1 -1 $61 $21 $6 2 1 1 1 1 1 1 1 1 1 1 1 1 1 0 1 1 1 @27 c0.800000 0.800000 0.800000 #
shell $-1 -1 -1 $-1 $-1 $-1 $62 $-1 $22 T 0 -27.5 -52.5 0 -1.5 -47.5 #
name_attrib-gen-attrib $-1 -1 $63 $23 $7 2 1 1 1 1 1 1 1 1 1 1 1 1 1 0 1 1 1 @27 c0.800000 0.800000 0.800000 #
shell $-1 -1 -1 $-1 $-1 $-1 $64 $-1 $24 T 0 -27.5 -47.5 0 -22.5 -26.5 #
name_attrib-gen-attrib $-1 -1 $65 $25 $8 2 1 1 1 1 1 1 1 1 1 1 1 1 1 0 1 1 1 @27 c0.800000 0.800000 0.800000 #
shell $-1 -1 -1 $-1 $-1 $-1 $66 $-1 $26 T 0 -27.5 -23.5 0 -22.5 23.5 #
name_attrib-gen-attrib $-1 -1 $67 $27 $9 2 1 1 1 1 1 1 1 1 1 1 1 1 1 0 1 1 1 @27 c0.800000 0.800000 0.800000 #
shell $-1 -1 -1 $-1 $-1 $-1 $68 $-1 $28 T 0 -27.5 26.5 0 -22.5 47.5 #
name_attrib-gen-attrib $-1 -1 $69 $29 $10 2 1 1 1 1 1 1 1 1 1 1 1 1 1 0 1 1 1 @27 c0.800000 0.800000 0.800000 #
shell $-1 -1 -1 $-1 $-1 $-1 $70 $-1 $30 T 0 -27.5 47.5 0 -1.5 52.5 #
integer_attrib-name_attrib-gen-attrib $-1 -1 $71 $31 $1 2 1 1 1 1 1 1 1 1 1 1 1 1 1 0 1 1 1 @4 type 0 #
face $72 -1 -1 $-1 $-1 $73 $32 $-1 $74 forward double out T 0 1.5 -52.5 0 27.5 -47.5 F #
integer_attrib-name_attrib-gen-attrib $-1 -1 $75 $33 $2 2 1 1 1 1 1 1 1 1 1 1 1 1 1 0 1 1 1 @4 type 0 #
face $76 -1 -1 $-1 $-1 $77 $34 $-1 $78 forward double out T 0 22.5 -47.5 0 27.5 -26.5 F #
integer_attrib-name_attrib-gen-attrib $-1 -1 $79 $35 $3 2 1 1 1 1 1 1 1 1 1 1 1 1 1 0 1 1 1 @4 type 5 #
face $80 -1 -1 $-1 $-1 $81 $36 $-1 $82 forward double out F F #
integer_attrib-name_attrib-gen-attrib $-1 -1 $83 $37 $4 2 1 1 1 1 1 1 1 1 1 1 1 1 1 0 1 1 1 @4 type 5 #
face $84 -1 -1 $-1 $-1 $85 $38 $-1 $86 forward double out T 0 1.5 47.5 0 27.5 52.5 F #
integer_attrib-name_attrib-gen-attrib $-1 -1 $87 $39 $5 2 1 1 1 1 1 1 1 1 1 1 1 1 1 0 1 1 1 @4 type 5 #
face $88 -1 -1 $-1 $-1 $89 $40 $-1 $90 forward double out T 0 22.5 26.5 0 27.5 47.5 F #
integer_attrib-name_attrib-gen-attrib $-1 -1 $91 $41 $6 2 1 1 1 1 1 1 1 1 1 1 1 1 1 0 1 1 1 @4 type 5 #
face $92 -1 -1 $-1 $-1 $93 $42 $-1 $94 forward double out T 0 -27.5 -52.5 0 -1.5 -47.5 F #
integer_attrib-name_attrib-gen-attrib $-1 -1 $95 $43 $7 2 1 1 1 1 1 1 1 1 1 1 1 1 1 0 1 1 1 @4 type 5 #
face $96 -1 -1 $-1 $-1 $97 $44 $-1 $98 forward double out T 0 -27.5 -47.5 0 -22.5 -26.5 F #
integer_attrib-name_attrib-gen-attrib $-1 -1 $99 $45 $8 2 1 1 1 1 1 1 1 1 1 1 1 1 1 0 1 1 1 @4 type 5 #
face $100 -1 -1 $-1 $-1 $101 $46 $-1 $102 forward double out T 0 -27.5 -23.5 0 -22.5 23.5 F #
integer_attrib-name_attrib-gen-attrib $-1 -1 $103 $47 $9 2 1 1 1 1 1 1 1 1 1 1 1 1 1 0 1 1 1 @4 type 5 #
face $104 -1 -1 $-1 $-1 $105 $48 $-1 $106 forward double out F F #
integer_attrib-name_attrib-gen-attrib $-1 -1 $107 $49 $10 2 1 1 1 1 1 1 1 1 1 1 1 1 1 0 1 1 1 @4 type 5 #
face $108 -1 -1 $-1 $-1 $109 $50 $-1 $110 forward double out T 0 -27.5 47.5 0 -1.5 52.5 F #
name_attrib-gen-attrib $-1 -1 $111 $51 $1 2 1 1 1 1 1 1 1 1 1 1 1 1 1 0 1 1 1 @4 mPEC #
name_attrib-gen-attrib $-1 -1 $112 $-1 $52 0 0 0 0 1 1 1 1 1 1 1 0 1 0 0 1 0 1 @4 bbox #
loop $-1 -1 -1 $-1 $-1 $113 $52 T 0 1.5 -52.5 0 27.5 -47.5 unknown #
plane-surface $-1 -1 -1 $-1 0 1.5 -52.5 1 0 0 0 0 -1 forward_v I I I I #
name_attrib-gen-attrib $-1 -1 $114 $53 $2 2 1 1 1 1 1 1 1 1 1 1 1 1 1 0 1 1 1 @4 mPEC #
name_attrib-gen-attrib $-1 -1 $115 $-1 $54 0 0 0 0 1 1 1 1 1 1 1 0 1 0 0 1 0 1 @4 bbox #
loop $-1 -1 -1 $-1 $-1 $116 $54 T 0 22.5 -47.5 0 27.5 -26.5 unknown #
plane-surface $-1 -1 -1 $-1 0 22.5 -47.5 1 0 0 0 0 -1 forward_v I I I I #
name_attrib-gen-attrib $-1 -1 $117 $55 $3 2 1 1 1 1 1 1 1 1 1 1 1 1 1 0 1 1 1 @4 mPEC #
name_attrib-gen-attrib $-1 -1 $118 $-1 $56 0 0 0 0 1 1 1 1 1 1 1 0 1 0 0 1 0 1 @4 bbox #
loop $-1 -1 -1 $-1 $-1 $119 $56 T 0 22.5 -23.5 0 27.5 23.5 periphery $82 F #
plane-surface $-1 -1 -1 $-1 0 22.5 -23.5 1 0 0 0 0 -1 forward_v I I I I #
name_attrib-gen-attrib $-1 -1 $120 $57 $4 2 1 1 1 1 1 1 1 1 1 1 1 1 1 0 1 1 1 @4 mPEC #
name_attrib-gen-attrib $-1 -1 $121 $-1 $58 0 0 0 0 1 1 1 1 1 1 1 0 1 0 0 1 0 1 @4 bbox #
loop $-1 -1 -1 $-1 $-1 $122 $58 T 0 1.5 47.5 0 27.5 52.5 unknown #
plane-surface $-1 -1 -1 $-1 0 1.5 52.5 1 0 -0 0 0 1 reverse_v I I I I #
name_attrib-gen-attrib $-1 -1 $123 $59 $5 2 1 1 1 1 1 1 1 1 1 1 1 1 1 0 1 1 1 @4 mPEC #
name_attrib-gen-attrib $-1 -1 $124 $-1 $60 0 0 0 0 1 1 1 1 1 1 1 0 1 0 0 1 0 1 @4 bbox #
loop $-1 -1 -1 $-1 $-1 $125 $60 T 0 22.5 26.5 0 27.5 47.5 unknown #
plane-surface $-1 -1 -1 $-1 0 22.5 47.5 1 0 -0 0 0 1 reverse_v I I I I #
name_attrib-gen-attrib $-1 -1 $126 $61 $6 2 1 1 1 1 1 1 1 1 1 1 1 1 1 0 1 1 1 @4 mPEC #
name_attrib-gen-attrib $-1 -1 $127 $-1 $62 0 0 0 0 1 1 1 1 1 1 1 0 1 0 0 1 0 1 @4 bbox #
loop $-1 -1 -1 $-1 $-1 $128 $62 T 0 -27.5 -52.5 0 -1.5 -47.5 unknown #
plane-surface $-1 -1 -1 $-1 0 -1.5 -52.5 1 -0 0 0 0 -1 reverse_v I I I I #
name_attrib-gen-attrib $-1 -1 $129 $63 $7 2 1 1 1 1 1 1 1 1 1 1 1 1 1 0 1 1 1 @4 mPEC #
name_attrib-gen-attrib $-1 -1 $130 $-1 $64 0 0 0 0 1 1 1 1 1 1 1 0 1 0 0 1 0 1 @4 bbox #
loop $-1 -1 -1 $-1 $-1 $131 $64 T 0 -27.5 -47.5 0 -22.5 -26.5 unknown #
plane-surface $-1 -1 -1 $-1 0 -22.5 -47.5 1 -0 0 0 0 -1 reverse_v I I I I #
name_attrib-gen-attrib $-1 -1 $132 $65 $8 2 1 1 1 1 1 1 1 1 1 1 1 1 1 0 1 1 1 @4 mPEC #
name_attrib-gen-attrib $-1 -1 $133 $-1 $66 0 0 0 0 1 1 1 1 1 1 1 0 1 0 0 1 0 1 @4 bbox #
loop $-1 -1 -1 $-1 $-1 $134 $66 T 0 -27.5 -23.5 0 -22.5 23.5 unknown #
plane-surface $-1 -1 -1 $-1 0 -22.5 -23.5 1 -0 0 0 0 -1 reverse_v I I I I #
name_attrib-gen-attrib $-1 -1 $135 $67 $9 2 1 1 1 1 1 1 1 1 1 1 1 1 1 0 1 1 1 @4 mPEC #
name_attrib-gen-attrib $-1 -1 $136 $-1 $68 0 0 0 0 1 1 1 1 1 1 1 0 1 0 0 1 0 1 @4 bbox #
loop $-1 -1 -1 $-1 $-1 $137 $68 T 0 -27.5 26.5 0 -22.5 47.5 periphery $106 F #
plane-surface $-1 -1 -1 $-1 0 -22.5 47.5 1 0 -0 0 -0 1 forward_v I I I I #
name_attrib-gen-attrib $-1 -1 $138 $69 $10 2 1 1 1 1 1 1 1 1 1 1 1 1 1 0 1 1 1 @4 mPEC #
name_attrib-gen-attrib $-1 -1 $139 $-1 $70 0 0 0 0 1 1 1 1 1 1 1 0 1 0 0 1 0 1 @4 bbox #
loop $-1 -1 -1 $-1 $-1 $140 $70 T 0 -27.5 47.5 0 -1.5 52.5 unknown #
plane-surface $-1 -1 -1 $-1 0 -1.5 52.5 1 0 -0 0 -0 1 forward_v I I I I #
name_attrib-gen-attrib $-1 -1 $141 $71 $1 2 1 1 1 1 1 1 1 1 1 1 1 1 1 0 1 1 1 @11 ncond:Loop1 #
integer_attrib-name_attrib-gen-attrib $-1 -1 $142 $72 $52 2 0 0 1 1 1 1 1 1 1 1 1 1 1 0 1 1 1 @3 fif 0 #
coedge $-1 -1 -1 $-1 $143 $144 $-1 $145 forward $73 $-1 #
name_attrib-gen-attrib $-1 -1 $146 $75 $2 2 1 1 1 1 1 1 1 1 1 1 1 1 1 0 1 1 1 @11 ncond:Loop2 #
integer_attrib-name_attrib-gen-attrib $-1 -1 $147 $76 $54 2 0 0 1 1 1 1 1 1 1 1 1 1 1 0 1 1 1 @3 fif 0 #
coedge $-1 -1 -1 $-1 $148 $149 $-1 $150 forward $77 $-1 #
name_attrib-gen-attrib $-1 -1 $151 $79 $3 2 1 1 1 1 1 1 1 1 1 1 1 1 1 0 1 1 1 @11 ncond:Loop3 #
integer_attrib-name_attrib-gen-attrib $-1 -1 $152 $80 $56 2 0 0 1 1 1 1 1 1 1 1 1 1 1 0 1 1 1 @3 fif 0 #
coedge $-1 -1 -1 $-1 $153 $154 $-1 $155 forward $81 $-1 #
name_attrib-gen-attrib $-1 -1 $156 $83 $4 2 1 1 1 1 1 1 1 1 1 1 1 1 1 0 1 1 1 @11 ncond:Loop5 #
integer_attrib-name_attrib-gen-attrib $-1 -1 $157 $84 $58 2 0 0 1 1 1 1 1 1 1 1 1 1 1 0 1 1 1 @3 fif 0 #
coedge $-1 -1 -1 $-1 $158 $159 $-1 $160 reversed $85 $-1 #
name_attrib-gen-attrib $-1 -1 $161 $87 $5 2 1 1 1 1 1 1 1 1 1 1 1 1 1 0 1 1 1 @11 ncond:Loop4 #
integer_attrib-name_attrib-gen-attrib $-1 -1 $162 $88 $60 2 0 0 1 1 1 1 1 1 1 1 1 1 1 0 1 1 1 @3 fif 0 #
coedge $-1 -1 -1 $-1 $163 $164 $-1 $165 reversed $89 $-1 #
name_attrib-gen-attrib $-1 -1 $166 $91 $6 2 1 1 1 1 1 1 1 1 1 1 1 1 1 0 1 1 1 @12 ncond:Loop10 #
integer_attrib-name_attrib-gen-attrib $-1 -1 $167 $92 $62 2 0 0 1 1 1 1 1 1 1 1 1 1 1 0 1 1 1 @3 fif 0 #
coedge $-1 -1 -1 $-1 $168 $169 $-1 $170 reversed $93 $-1 #
name_attrib-gen-attrib $-1 -1 $171 $95 $7 2 1 1 1 1 1 1 1 1 1 1 1 1 1 0 1 1 1 @11 ncond:Loop9 #
integer_attrib-name_attrib-gen-attrib $-1 -1 $172 $96 $64 2 0 0 1 1 1 1 1 1 1 1 1 1 1 0 1 1 1 @3 fif 0 #
coedge $-1 -1 -1 $-1 $173 $174 $-1 $175 reversed $97 $-1 #
name_attrib-gen-attrib $-1 -1 $176 $99 $8 2 1 1 1 1 1 1 1 1 1 1 1 1 1 0 1 1 1 @11 ncond:Loop8 #
integer_attrib-name_attrib-gen-attrib $-1 -1 $177 $100 $66 2 0 0 1 1 1 1 1 1 1 1 1 1 1 0 1 1 1 @3 fif 0 #
coedge $-1 -1 -1 $-1 $178 $179 $-1 $180 reversed $101 $-1 #
name_attrib-gen-attrib $-1 -1 $181 $103 $9 2 1 1 1 1 1 1 1 1 1 1 1 1 1 0 1 1 1 @11 ncond:Loop7 #
integer_attrib-name_attrib-gen-attrib $-1 -1 $182 $104 $68 2 0 0 1 1 1 1 1 1 1 1 1 1 1 0 1 1 1 @3 fif 0 #
coedge $-1 -1 -1 $-1 $183 $184 $-1 $185 forward $105 $-1 #
name_attrib-gen-attrib $-1 -1 $186 $107 $10 2 1 1 1 1 1 1 1 1 1 1 1 1 1 0 1 1 1 @11 ncond:Loop6 #
integer_attrib-name_attrib-gen-attrib $-1 -1 $187 $108 $70 2 0 0 1 1 1 1 1 1 1 1 1 1 1 0 1 1 1 @3 fif 0 #
coedge $-1 -1 -1 $-1 $188 $189 $-1 $190 forward $109 $-1 #
name_attrib-gen-attrib $-1 -1 $191 $111 $1 2 1 1 1 1 1 1 1 1 1 1 1 1 1 0 1 1 1 @17 abody_is_no_solid #
integer_attrib-name_attrib-gen-attrib $-1 -1 $192 $112 $52 2 1 1 1 1 1 1 1 1 1 1 1 1 1 0 1 1 1 @4 pidr 6 #
coedge $-1 -1 -1 $-1 $193 $113 $-1 $194 forward $73 $-1 #
coedge $-1 -1 -1 $-1 $113 $193 $-1 $195 forward $73 $-1 #
edge $196 -1 -1 $-1 $197 0 $198 26 $113 $199 forward @7 unknown T 0 1.5 -52.5 0 27.5 -52.5 #
name_attrib-gen-attrib $-1 -1 $200 $114 $2 2 1 1 1 1 1 1 1 1 1 1 1 1 1 0 1 1 1 @17 abody_is_no_solid #
integer_attrib-name_attrib-gen-attrib $-1 -1 $201 $115 $54 2 1 1 1 1 1 1 1 1 1 1 1 1 1 0 1 1 1 @4 pidr 6 #
coedge $-1 -1 -1 $-1 $202 $116 $-1 $203 forward $77 $-1 #
coedge $-1 -1 -1 $-1 $116 $202 $-1 $204 forward $77 $-1 #
edge $205 -1 -1 $-1 $206 0 $207 5 $116 $208 forward @7 unknown T 0 22.5 -47.5 0 27.5 -47.5 #
name_attrib-gen-attrib $-1 -1 $209 $117 $3 2 1 1 1 1 1 1 1 1 1 1 1 1 1 0 1 1 1 @17 abody_is_no_solid #
integer_attrib-name_attrib-gen-attrib $-1 -1 $210 $118 $56 2 1 1 1 1 1 1 1 1 1 1 1 1 1 0 1 1 1 @4 pidr 6 #
coedge $-1 -1 -1 $-1 $211 $119 $-1 $212 forward $81 $-1 #
coedge $-1 -1 -1 $-1 $119 $211 $-1 $213 forward $81 $-1 #
edge $214 -1 -1 $-1 $215 0 $216 5 $119 $217 forward @7 unknown T 0 22.5 -23.5 0 27.5 -23.5 #
name_attrib-gen-attrib $-1 -1 $218 $120 $4 2 1 1 1 1 1 1 1 1 1 1 1 1 1 0 1 1 1 @17 abody_is_no_solid #
integer_attrib-name_attrib-gen-attrib $-1 -1 $219 $121 $58 2 1 1 1 1 1 1 1 1 1 1 1 1 1 0 1 1 1 @4 pidr 6 #
coedge $-1 -1 -1 $-1 $220 $122 $-1 $221 reversed $85 $-1 #
coedge $-1 -1 -1 $-1 $122 $220 $-1 $222 reversed $85 $-1 #
edge $223 -1 -1 $-1 $224 0 $225 26 $122 $226 forward @7 unknown T 0 1.5 52.5 0 27.5 52.5 #
name_attrib-gen-attrib $-1 -1 $227 $123 $5 2 1 1 1 1 1 1 1 1 1 1 1 1 1 0 1 1 1 @17 abody_is_no_solid #
integer_attrib-name_attrib-gen-attrib $-1 -1 $228 $124 $60 2 1 1 1 1 1 1 1 1 1 1 1 1 1 0 1 1 1 @4 pidr 6 #
coedge $-1 -1 -1 $-1 $229 $125 $-1 $230 reversed $89 $-1 #
coedge $-1 -1 -1 $-1 $125 $229 $-1 $231 reversed $89 $-1 #
edge $232 -1 -1 $-1 $233 0 $234 5 $125 $235 forward @7 unknown T 0 22.5 47.5 0 27.5 47.5 #
name_attrib-gen-attrib $-1 -1 $236 $126 $6 2 1 1 1 1 1 1 1 1 1 1 1 1 1 0 1 1 1 @17 abody_is_no_solid #
integer_attrib-name_attrib-gen-attrib $-1 -1 $237 $127 $62 2 1 1 1 1 1 1 1 1 1 1 1 1 1 0 1 1 1 @4 pidr 6 #
coedge $-1 -1 -1 $-1 $238 $128 $-1 $239 reversed $93 $-1 #
coedge $-1 -1 -1 $-1 $128 $238 $-1 $240 reversed $93 $-1 #
edge $241 -1 -1 $-1 $242 0 $243 26 $128 $244 forward @7 unknown T 0 -27.5 -52.5 0 -1.5 -52.5 #
name_attrib-gen-attrib $-1 -1 $245 $129 $7 2 1 1 1 1 1 1 1 1 1 1 1 1 1 0 1 1 1 @17 abody_is_no_solid #
integer_attrib-name_attrib-gen-attrib $-1 -1 $246 $130 $64 2 1 1 1 1 1 1 1 1 1 1 1 1 1 0 1 1 1 @4 pidr 6 #
coedge $-1 -1 -1 $-1 $247 $131 $-1 $248 reversed $97 $-1 #
coedge $-1 -1 -1 $-1 $131 $247 $-1 $249 reversed $97 $-1 #
edge $250 -1 -1 $-1 $251 0 $252 5 $131 $253 forward @7 unknown T 0 -27.5 -47.5 0 -22.5 -47.5 #
name_attrib-gen-attrib $-1 -1 $254 $132 $8 2 1 1 1 1 1 1 1 1 1 1 1 1 1 0 1 1 1 @17 abody_is_no_solid #
integer_attrib-name_attrib-gen-attrib $-1 -1 $255 $133 $66 2 1 1 1 1 1 1 1 1 1 1 1 1 1 0 1 1 1 @4 pidr 6 #
coedge $-1 -1 -1 $-1 $256 $134 $-1 $257 reversed $101 $-1 #
coedge $-1 -1 -1 $-1 $134 $256 $-1 $258 reversed $101 $-1 #
edge $259 -1 -1 $-1 $260 0 $261 5 $134 $262 forward @7 unknown T 0 -27.5 -23.5 0 -22.5 -23.5 #
name_attrib-gen-attrib $-1 -1 $263 $135 $9 2 1 1 1 1 1 1 1 1 1 1 1 1 1 0 1 1 1 @17 abody_is_no_solid #
integer_attrib-name_attrib-gen-attrib $-1 -1 $264 $136 $68 2 1 1 1 1 1 1 1 1 1 1 1 1 1 0 1 1 1 @4 pidr 6 #
coedge $-1 -1 -1 $-1 $265 $137 $-1 $266 forward $105 $-1 #
coedge $-1 -1 -1 $-1 $137 $265 $-1 $267 forward $105 $-1 #
edge $268 -1 -1 $-1 $269 0 $270 5 $137 $271 forward @7 unknown T 0 -27.5 47.5 0 -22.5 47.5 #
name_attrib-gen-attrib $-1 -1 $272 $138 $10 2 1 1 1 1 1 1 1 1 1 1 1 1 1 0 1 1 1 @17 abody_is_no_solid #
integer_attrib-name_attrib-gen-attrib $-1 -1 $273 $139 $70 2 1 1 1 1 1 1 1 1 1 1 1 1 1 0 1 1 1 @4 pidr 6 #
coedge $-1 -1 -1 $-1 $274 $140 $-1 $275 forward $109 $-1 #
coedge $-1 -1 -1 $-1 $140 $274 $-1 $276 forward $109 $-1 #
edge $277 -1 -1 $-1 $278 0 $279 26 $140 $280 forward @7 unknown T 0 -27.5 52.5 0 -1.5 52.5 #
integer_attrib-name_attrib-gen-attrib $-1 -1 $281 $141 $1 2 1 1 1 1 1 1 1 1 1 1 1 1 1 0 1 1 1 @17 object_visibility 0 #
integer_attrib-name_attrib-gen-attrib $-1 -1 $-1 $142 $52 2 1 1 1 1 1 1 1 1 1 1 1 1 1 0 1 1 1 @3 pid 4 #
coedge $-1 -1 -1 $-1 $144 $143 $-1 $282 forward $73 $-1 #
edge $283 -1 -1 $-1 $198 0 $284 5 $143 $285 forward @7 unknown T 0 27.5 -52.5 0 27.5 -47.5 #
edge $286 -1 -1 $-1 $287 0 $197 5 $144 $288 forward @7 unknown T 0 1.5 -52.5 0 1.5 -47.5 #
name_attrib-gen-attrib $-1 -1 $289 $-1 $145 0 0 0 0 1 1 1 1 1 1 1 0 1 0 0 1 0 1 @4 bbox #
vertex $290 -1 -1 $-1 $145 $291 #
vertex $292 -1 -1 $-1 $145 $293 #
straight-curve $-1 -1 -1 $-1 0 1.5 -52.5 0 1 0 I I #
integer_attrib-name_attrib-gen-attrib $-1 -1 $294 $146 $2 2 1 1 1 1 1 1 1 1 1 1 1 1 1 0 1 1 1 @17 object_visibility 0 #
integer_attrib-name_attrib-gen-attrib $-1 -1 $-1 $147 $54 2 1 1 1 1 1 1 1 1 1 1 1 1 1 0 1 1 1 @3 pid 4 #
coedge $-1 -1 -1 $-1 $149 $148 $-1 $295 forward $77 $-1 #
edge $296 -1 -1 $-1 $207 0 $297 21 $148 $298 forward @7 unknown T 0 27.5 -47.5 0 27.5 -26.5 #
edge $299 -1 -1 $-1 $300 0 $206 21 $149 $301 forward @7 unknown T 0 22.5 -47.5 0 22.5 -26.5 #
name_attrib-gen-attrib $-1 -1 $302 $-1 $150 0 0 0 0 1 1 1 1 1 1 1 0 1 0 0 1 0 1 @4 bbox #
vertex $303 -1 -1 $-1 $150 $304 #
vertex $305 -1 -1 $-1 $150 $306 #
straight-curve $-1 -1 -1 $-1 0 22.5 -47.5 0 1 0 I I #
integer_attrib-name_attrib-gen-attrib $-1 -1 $307 $151 $3 2 1 1 1 1 1 1 1 1 1 1 1 1 1 0 1 1 1 @17 object_visibility 0 #
integer_attrib-name_attrib-gen-attrib $-1 -1 $-1 $152 $56 2 1 1 1 1 1 1 1 1 1 1 1 1 1 0 1 1 1 @3 pid 4 #
coedge $-1 -1 -1 $-1 $154 $153 $-1 $308 forward $81 $-1 #
edge $309 -1 -1 $-1 $216 0 $310 47 $153 $311 forward @7 unknown T 0 27.5 -23.5 0 27.5 23.5 #
edge $312 -1 -1 $-1 $313 0 $215 47 $154 $314 forward @7 unknown T 0 22.5 -23.5 0 22.5 23.5 #
name_attrib-gen-attrib $-1 -1 $315 $-1 $155 0 0 0 0 1 1 1 1 1 1 1 0 1 0 0 1 0 1 @4 bbox #
vertex $316 -1 -1 $-1 $155 $317 #
vertex $318 -1 -1 $-1 $155 $319 #
straight-curve $-1 -1 -1 $-1 0 22.5 -23.5 0 1 0 I I #
integer_attrib-name_attrib-gen-attrib $-1 -1 $320 $156 $4 2 1 1 1 1 1 1 1 1 1 1 1 1 1 0 1 1 1 @17 object_visibility 0 #
integer_attrib-name_attrib-gen-attrib $-1 -1 $-1 $157 $58 2 1 1 1 1 1 1 1 1 1 1 1 1 1 0 1 1 1 @3 pid 4 #
coedge $-1 -1 -1 $-1 $159 $158 $-1 $321 reversed $85 $-1 #
edge $322 -1 -1 $-1 $323 0 $224 5 $158 $324 forward @7 unknown T 0 1.5 47.5 0 1.5 52.5 #
edge $325 -1 -1 $-1 $225 0 $326 5 $159 $327 forward @7 unknown T 0 27.5 47.5 0 27.5 52.5 #
name_attrib-gen-attrib $-1 -1 $328 $-1 $160 0 0 0 0 1 1 1 1 1 1 1 0 1 0 0 1 0 1 @4 bbox #
vertex $329 -1 -1 $-1 $160 $330 #
vertex $331 -1 -1 $-1 $160 $332 #
straight-curve $-1 -1 -1 $-1 0 1.5 52.5 0 1 -0 I I #
integer_attrib-name_attrib-gen-attrib $-1 -1 $333 $161 $5 2 1 1 1 1 1 1 1 1 1 1 1 1 1 0 1 1 1 @17 object_visibility 0 #
integer_attrib-name_attrib-gen-attrib $-1 -1 $-1 $162 $60 2 1 1 1 1 1 1 1 1 1 1 1 1 1 0 1 1 1 @3 pid 4 #
coedge $-1 -1 -1 $-1 $164 $163 $-1 $334 reversed $89 $-1 #
edge $335 -1 -1 $-1 $336 0 $233 21 $163 $337 forward @7 unknown T 0 22.5 26.5 0 22.5 47.5 #
edge $338 -1 -1 $-1 $234 0 $339 21 $164 $340 forward @7 unknown T 0 27.5 26.5 0 27.5 47.5 #
name_attrib-gen-attrib $-1 -1 $341 $-1 $165 0 0 0 0 1 1 1 1 1 1 1 0 1 0 0 1 0 1 @4 bbox #
vertex $342 -1 -1 $-1 $165 $343 #
vertex $344 -1 -1 $-1 $165 $345 #
straight-curve $-1 -1 -1 $-1 0 22.5 47.5 0 1 -0 I I #
integer_attrib-name_attrib-gen-attrib $-1 -1 $346 $166 $6 2 1 1 1 1 1 1 1 1 1 1 1 1 1 0 1 1 1 @17 object_visibility 0 #
integer_attrib-name_attrib-gen-attrib $-1 -1 $-1 $167 $62 2 1 1 1 1 1 1 1 1 1 1 1 1 1 0 1 1 1 @3 pid 4 #
coedge $-1 -1 -1 $-1 $169 $168 $-1 $347 reversed $93 $-1 #
edge $348 -1 -1 $-1 $349 0 $242 5 $168 $350 forward @7 unknown T 0 -1.5 -52.5 0 -1.5 -47.5 #
edge $351 -1 -1 $-1 $243 0 $352 5 $169 $353 forward @7 unknown T 0 -27.5 -52.5 0 -27.5 -47.5 #
name_attrib-gen-attrib $-1 -1 $354 $-1 $170 0 0 0 0 1 1 1 1 1 1 1 0 1 0 0 1 0 1 @4 bbox #
vertex $355 -1 -1 $-1 $170 $356 #
vertex $357 -1 -1 $-1 $170 $358 #
straight-curve $-1 -1 -1 $-1 0 -1.5 -52.5 0 -1 0 I I #
integer_attrib-name_attrib-gen-attrib $-1 -1 $359 $171 $7 2 1 1 1 1 1 1 1 1 1 1 1 1 1 0 1 1 1 @17 object_visibility 0 #
integer_attrib-name_attrib-gen-attrib $-1 -1 $-1 $172 $64 2 1 1 1 1 1 1 1 1 1 1 1 1 1 0 1 1 1 @3 pid 4 #
coedge $-1 -1 -1 $-1 $174 $173 $-1 $360 reversed $97 $-1 #
edge $361 -1 -1 $-1 $362 0 $251 21 $173 $363 forward @7 unknown T 0 -22.5 -47.5 0 -22.5 -26.5 #
edge $364 -1 -1 $-1 $252 0 $365 21 $174 $366 forward @7 unknown T 0 -27.5 -47.5 0 -27.5 -26.5 #
name_attrib-gen-attrib $-1 -1 $367 $-1 $175 0 0 0 0 1 1 1 1 1 1 1 0 1 0 0 1 0 1 @4 bbox #
vertex $368 -1 -1 $-1 $175 $369 #
vertex $370 -1 -1 $-1 $175 $371 #
straight-curve $-1 -1 -1 $-1 0 -22.5 -47.5 0 -1 0 I I #
integer_attrib-name_attrib-gen-attrib $-1 -1 $372 $176 $8 2 1 1 1 1 1 1 1 1 1 1 1 1 1 0 1 1 1 @17 object_visibility 0 #
integer_attrib-name_attrib-gen-attrib $-1 -1 $-1 $177 $66 2 1 1 1 1 1 1 1 1 1 1 1 1 1 0 1 1 1 @3 pid 4 #
coedge $-1 -1 -1 $-1 $179 $178 $-1 $373 reversed $101 $-1 #
edge $374 -1 -1 $-1 $375 0 $260 47 $178 $376 forward @7 unknown T 0 -22.5 -23.5 0 -22.5 23.5 #
edge $377 -1 -1 $-1 $261 0 $378 47 $179 $379 forward @7 unknown T 0 -27.5 -23.5 0 -27.5 23.5 #
name_attrib-gen-attrib $-1 -1 $380 $-1 $180 0 0 0 0 1 1 1 1 1 1 1 0 1 0 0 1 0 1 @4 bbox #
vertex $381 -1 -1 $-1 $180 $382 #
vertex $383 -1 -1 $-1 $180 $384 #
straight-curve $-1 -1 -1 $-1 0 -22.5 -23.5 0 -1 0 I I #
integer_attrib-name_attrib-gen-attrib $-1 -1 $385 $181 $9 2 1 1 1 1 1 1 1 1 1 1 1 1 1 0 1 1 1 @17 object_visibility 0 #
integer_attrib-name_attrib-gen-attrib $-1 -1 $-1 $182 $68 2 1 1 1 1 1 1 1 1 1 1 1 1 1 0 1 1 1 @3 pid 4 #
coedge $-1 -1 -1 $-1 $184 $183 $-1 $386 forward $105 $-1 #
edge $387 -1 -1 $-1 $270 0 $388 21 $183 $389 forward @7 unknown T 0 -27.5 26.5 0 -27.5 47.5 #
edge $390 -1 -1 $-1 $391 0 $269 21 $184 $392 forward @7 unknown T 0 -22.5 26.5 0 -22.5 47.5 #
name_attrib-gen-attrib $-1 -1 $393 $-1 $185 0 0 0 0 1 1 1 1 1 1 1 0 1 0 0 1 0 1 @4 bbox #
vertex $394 -1 -1 $-1 $185 $395 #
vertex $396 -1 -1 $-1 $185 $397 #
straight-curve $-1 -1 -1 $-1 0 -22.5 47.5 0 -1 -0 I I #
integer_attrib-name_attrib-gen-attrib $-1 -1 $398 $186 $10 2 1 1 1 1 1 1 1 1 1 1 1 1 1 0 1 1 1 @17 object_visibility 0 #
integer_attrib-name_attrib-gen-attrib $-1 -1 $-1 $187 $70 2 1 1 1 1 1 1 1 1 1 1 1 1 1 0 1 1 1 @3 pid 4 #
coedge $-1 -1 -1 $-1 $189 $188 $-1 $399 forward $109 $-1 #
edge $400 -1 -1 $-1 $279 0 $401 5 $188 $402 forward @7 unknown T 0 -27.5 47.5 0 -27.5 52.5 #
edge $403 -1 -1 $-1 $404 0 $278 5 $189 $405 forward @7 unknown T 0 -1.5 47.5 0 -1.5 52.5 #
name_attrib-gen-attrib $-1 -1 $406 $-1 $190 0 0 0 0 1 1 1 1 1 1 1 0 1 0 0 1 0 1 @4 bbox #
vertex $407 -1 -1 $-1 $190 $408 #
vertex $409 -1 -1 $-1 $190 $410 #
straight-curve $-1 -1 -1 $-1 0 -1.5 52.5 0 -1 -0 I I #
real_attrib-name_attrib-gen-attrib $-1 -1 $411 $191 $1 0 0 0 0 1 1 1 1 1 1 1 0 1 0 0 1 0 1 @8 bboxzmax -47.5 #
edge $412 -1 -1 $-1 $284 0 $287 26 $193 $413 forward @7 unknown T 0 1.5 -47.5 0 27.5 -47.5 #
name_attrib-gen-attrib $-1 -1 $414 $-1 $194 0 0 0 0 1 1 1 1 1 1 1 0 1 0 0 1 0 1 @4 bbox #
vertex $415 -1 -1 $-1 $194 $416 #
straight-curve $-1 -1 -1 $-1 0 27.5 -52.5 0 0 1 I I #
name_attrib-gen-attrib $-1 -1 $417 $-1 $195 0 0 0 0 1 1 1 1 1 1 1 0 1 0 0 1 0 1 @4 bbox #
vertex $418 -1 -1 $-1 $282 $419 #
straight-curve $-1 -1 -1 $-1 0 1.5 -47.5 0 0 -1 I I #
name_attrib-gen-attrib $-1 -1 $420 $196 $145 2 1 1 1 1 1 1 1 1 1 1 1 1 1 0 1 1 1 @3 eif #
name_attrib-gen-attrib $-1 -1 $421 $-1 $197 0 0 0 0 1 1 1 1 1 1 1 0 1 0 0 1 0 1 @4 bbox #
point $-1 -1 -1 $-1 0 1.5 -52.5 #
name_attrib-gen-attrib $-1 -1 $422 $-1 $198 0 0 0 0 1 1 1 1 1 1 1 0 1 0 0 1 0 1 @4 bbox #
point $-1 -1 -1 $-1 0 27.5 -52.5 #
real_attrib-name_attrib-gen-attrib $-1 -1 $423 $200 $2 0 0 0 0 1 1 1 1 1 1 1 0 1 0 0 1 0 1 @8 bboxzmax -26.5 #
edge $424 -1 -1 $-1 $297 0 $300 5 $202 $425 forward @7 unknown T 0 22.5 -26.5 0 27.5 -26.5 #
name_attrib-gen-attrib $-1 -1 $426 $-1 $203 0 0 0 0 1 1 1 1 1 1 1 0 1 0 0 1 0 1 @4 bbox #
vertex $427 -1 -1 $-1 $203 $428 #
straight-curve $-1 -1 -1 $-1 0 27.5 -47.5 0 0 1 I I #
name_attrib-gen-attrib $-1 -1 $429 $-1 $204 0 0 0 0 1 1 1 1 1 1 1 0 1 0 0 1 0 1 @4 bbox #
vertex $430 -1 -1 $-1 $295 $431 #
straight-curve $-1 -1 -1 $-1 0 22.5 -26.5 0 0 -1 I I #
name_attrib-gen-attrib $-1 -1 $432 $205 $150 2 1 1 1 1 1 1 1 1 1 1 1 1 1 0 1 1 1 @3 eif #
name_attrib-gen-attrib $-1 -1 $433 $-1 $206 0 0 0 0 1 1 1 1 1 1 1 0 1 0 0 1 0 1 @4 bbox #
point $-1 -1 -1 $-1 0 22.5 -47.5 #
name_attrib-gen-attrib $-1 -1 $434 $-1 $207 0 0 0 0 1 1 1 1 1 1 1 0 1 0 0 1 0 1 @4 bbox #
point $-1 -1 -1 $-1 0 27.5 -47.5 #
real_attrib-name_attrib-gen-attrib $-1 -1 $435 $209 $3 0 0 0 0 1 1 1 1 1 1 1 0 1 0 0 1 0 1 @8 bboxzmax 23.5 #
edge $436 -1 -1 $-1 $310 0 $313 5 $211 $437 forward @7 unknown T 0 22.5 23.5 0 27.5 23.5 #
name_attrib-gen-attrib $-1 -1 $438 $-1 $212 0 0 0 0 1 1 1 1 1 1 1 0 1 0 0 1 0 1 @4 bbox #
vertex $439 -1 -1 $-1 $212 $440 #
straight-curve $-1 -1 -1 $-1 0 27.5 -23.5 0 0 1 I I #
name_attrib-gen-attrib $-1 -1 $441 $-1 $213 0 0 0 0 1 1 1 1 1 1 1 0 1 0 0 1 0 1 @4 bbox #
vertex $442 -1 -1 $-1 $308 $443 #
straight-curve $-1 -1 -1 $-1 0 22.5 23.5 0 0 -1 I I #
name_attrib-gen-attrib $-1 -1 $444 $214 $155 2 1 1 1 1 1 1 1 1 1 1 1 1 1 0 1 1 1 @3 eif #
name_attrib-gen-attrib $-1 -1 $445 $-1 $215 0 0 0 0 1 1 1 1 1 1 1 0 1 0 0 1 0 1 @4 bbox #
point $-1 -1 -1 $-1 0 22.5 -23.5 #
name_attrib-gen-attrib $-1 -1 $446 $-1 $216 0 0 0 0 1 1 1 1 1 1 1 0 1 0 0 1 0 1 @4 bbox #
point $-1 -1 -1 $-1 0 27.5 -23.5 #
real_attrib-name_attrib-gen-attrib $-1 -1 $447 $218 $4 0 0 0 0 1 1 1 1 1 1 1 0 1 0 0 1 0 1 @8 bboxzmax 52.5 #
edge $448 -1 -1 $-1 $326 0 $323 26 $220 $449 forward @7 unknown T 0 1.5 47.5 0 27.5 47.5 #
name_attrib-gen-attrib $-1 -1 $450 $-1 $221 0 0 0 0 1 1 1 1 1 1 1 0 1 0 0 1 0 1 @4 bbox #
vertex $451 -1 -1 $-1 $321 $452 #
straight-curve $-1 -1 -1 $-1 0 1.5 47.5 0 0 1 I I #
name_attrib-gen-attrib $-1 -1 $453 $-1 $222 0 0 0 0 1 1 1 1 1 1 1 0 1 0 0 1 0 1 @4 bbox #
vertex $454 -1 -1 $-1 $222 $455 #
straight-curve $-1 -1 -1 $-1 0 27.5 52.5 0 0 -1 I I #
name_attrib-gen-attrib $-1 -1 $456 $223 $160 2 1 1 1 1 1 1 1 1 1 1 1 1 1 0 1 1 1 @3 eif #
name_attrib-gen-attrib $-1 -1 $457 $-1 $224 0 0 0 0 1 1 1 1 1 1 1 0 1 0 0 1 0 1 @4 bbox #
point $-1 -1 -1 $-1 0 1.5 52.5 #
name_attrib-gen-attrib $-1 -1 $458 $-1 $225 0 0 0 0 1 1 1 1 1 1 1 0 1 0 0 1 0 1 @4 bbox #
point $-1 -1 -1 $-1 0 27.5 52.5 #
real_attrib-name_attrib-gen-attrib $-1 -1 $459 $227 $5 0 0 0 0 1 1 1 1 1 1 1 0 1 0 0 1 0 1 @8 bboxzmax 47.5 #
edge $460 -1 -1 $-1 $339 0 $336 5 $229 $461 forward @7 unknown T 0 22.5 26.5 0 27.5 26.5 #
name_attrib-gen-attrib $-1 -1 $462 $-1 $230 0 0 0 0 1 1 1 1 1 1 1 0 1 0 0 1 0 1 @4 bbox #
vertex $463 -1 -1 $-1 $334 $464 #
straight-curve $-1 -1 -1 $-1 0 22.5 26.5 0 0 1 I I #
name_attrib-gen-attrib $-1 -1 $465 $-1 $231 0 0 0 0 1 1 1 1 1 1 1 0 1 0 0 1 0 1 @4 bbox #
vertex $466 -1 -1 $-1 $231 $467 #
straight-curve $-1 -1 -1 $-1 0 27.5 47.5 0 0 -1 I I #
name_attrib-gen-attrib $-1 -1 $468 $232 $165 2 1 1 1 1 1 1 1 1 1 1 1 1 1 0 1 1 1 @3 eif #
name_attrib-gen-attrib $-1 -1 $469 $-1 $233 0 0 0 0 1 1 1 1 1 1 1 0 1 0 0 1 0 1 @4 bbox #
point $-1 -1 -1 $-1 0 22.5 47.5 #
name_attrib-gen-attrib $-1 -1 $470 $-1 $234 0 0 0 0 1 1 1 1 1 1 1 0 1 0 0 1 0 1 @4 bbox #
point $-1 -1 -1 $-1 0 27.5 47.5 #
real_attrib-name_attrib-gen-attrib $-1 -1 $471 $236 $6 0 0 0 0 1 1 1 1 1 1 1 0 1 0 0 1 0 1 @8 bboxzmax -47.5 #
edge $472 -1 -1 $-1 $352 0 $349 26 $238 $473 forward @7 unknown T 0 -27.5 -47.5 0 -1.5 -47.5 #
name_attrib-gen-attrib $-1 -1 $474 $-1 $239 0 0 0 0 1 1 1 1 1 1 1 0 1 0 0 1 0 1 @4 bbox #
vertex $475 -1 -1 $-1 $347 $476 #
straight-curve $-1 -1 -1 $-1 0 -1.5 -47.5 0 0 -1 I I #
name_attrib-gen-attrib $-1 -1 $477 $-1 $240 0 0 0 0 1 1 1 1 1 1 1 0 1 0 0 1 0 1 @4 bbox #
vertex $478 -1 -1 $-1 $240 $479 #
straight-curve $-1 -1 -1 $-1 0 -27.5 -52.5 0 -0 1 I I #
name_attrib-gen-attrib $-1 -1 $480 $241 $170 2 1 1 1 1 1 1 1 1 1 1 1 1 1 0 1 1 1 @3 eif #
name_attrib-gen-attrib $-1 -1 $481 $-1 $242 0 0 0 0 1 1 1 1 1 1 1 0 1 0 0 1 0 1 @4 bbox #
point $-1 -1 -1 $-1 0 -1.5 -52.5 #
name_attrib-gen-attrib $-1 -1 $482 $-1 $243 0 0 0 0 1 1 1 1 1 1 1 0 1 0 0 1 0 1 @4 bbox #
point $-1 -1 -1 $-1 0 -27.5 -52.5 #
real_attrib-name_attrib-gen-attrib $-1 -1 $483 $245 $7 0 0 0 0 1 1 1 1 1 1 1 0 1 0 0 1 0 1 @8 bboxzmax -26.5 #
edge $484 -1 -1 $-1 $365 0 $362 5 $247 $485 forward @7 unknown T 0 -27.5 -26.5 0 -22.5 -26.5 #
name_attrib-gen-attrib $-1 -1 $486 $-1 $248 0 0 0 0 1 1 1 1 1 1 1 0 1 0 0 1 0 1 @4 bbox #
vertex $487 -1 -1 $-1 $360 $488 #
straight-curve $-1 -1 -1 $-1 0 -22.5 -26.5 0 0 -1 I I #
name_attrib-gen-attrib $-1 -1 $489 $-1 $249 0 0 0 0 1 1 1 1 1 1 1 0 1 0 0 1 0 1 @4 bbox #
vertex $490 -1 -1 $-1 $249 $491 #
straight-curve $-1 -1 -1 $-1 0 -27.5 -47.5 0 -0 1 I I #
name_attrib-gen-attrib $-1 -1 $492 $250 $175 2 1 1 1 1 1 1 1 1 1 1 1 1 1 0 1 1 1 @3 eif #
name_attrib-gen-attrib $-1 -1 $493 $-1 $251 0 0 0 0 1 1 1 1 1 1 1 0 1 0 0 1 0 1 @4 bbox #
point $-1 -1 -1 $-1 0 -22.5 -47.5 #
name_attrib-gen-attrib $-1 -1 $494 $-1 $252 0 0 0 0 1 1 1 1 1 1 1 0 1 0 0 1 0 1 @4 bbox #
point $-1 -1 -1 $-1 0 -27.5 -47.5 #
real_attrib-name_attrib-gen-attrib $-1 -1 $495 $254 $8 0 0 0 0 1 1 1 1 1 1 1 0 1 0 0 1 0 1 @8 bboxzmax 23.5 #
edge $496 -1 -1 $-1 $378 0 $375 5 $256 $497 forward @7 unknown T 0 -27.5 23.5 0 -22.5 23.5 #
name_attrib-gen-attrib $-1 -1 $498 $-1 $257 0 0 0 0 1 1 1 1 1 1 1 0 1 0 0 1 0 1 @4 bbox #
vertex $499 -1 -1 $-1 $373 $500 #
straight-curve $-1 -1 -1 $-1 0 -22.5 23.5 0 0 -1 I I #
name_attrib-gen-attrib $-1 -1 $501 $-1 $258 0 0 0 0 1 1 1 1 1 1 1 0 1 0 0 1 0 1 @4 bbox #
vertex $502 -1 -1 $-1 $258 $503 #
straight-curve $-1 -1 -1 $-1 0 -27.5 -23.5 0 -0 1 I I #
name_attrib-gen-attrib $-1 -1 $504 $259 $180 2 1 1 1 1 1 1 1 1 1 1 1 1 1 0 1 1 1 @3 eif #
name_attrib-gen-attrib $-1 -1 $505 $-1 $260 0 0 0 0 1 1 1 1 1 1 1 0 1 0 0 1 0 1 @4 bbox #
point $-1 -1 -1 $-1 0 -22.5 -23.5 #
name_attrib-gen-attrib $-1 -1 $506 $-1 $261 0 0 0 0 1 1 1 1 1 1 1 0 1 0 0 1 0 1 @4 bbox #
point $-1 -1 -1 $-1 0 -27.5 -23.5 #
real_attrib-name_attrib-gen-attrib $-1 -1 $507 $263 $9 0 0 0 0 1 1 1 1 1 1 1 0 1 0 0 1 0 1 @8 bboxzmax 47.5 #
edge $508 -1 -1 $-1 $388 0 $391 5 $265 $509 forward @7 unknown T 0 -27.5 26.5 0 -22.5 26.5 #
name_attrib-gen-attrib $-1 -1 $510 $-1 $266 0 0 0 0 1 1 1 1 1 1 1 0 1 0 0 1 0 1 @4 bbox #
vertex $511 -1 -1 $-1 $266 $512 #
straight-curve $-1 -1 -1 $-1 0 -27.5 47.5 0 0 -1 I I #
name_attrib-gen-attrib $-1 -1 $513 $-1 $267 0 0 0 0 1 1 1 1 1 1 1 0 1 0 0 1 0 1 @4 bbox #
vertex $514 -1 -1 $-1 $386 $515 #
straight-curve $-1 -1 -1 $-1 0 -22.5 26.5 0 -0 1 I I #
name_attrib-gen-attrib $-1 -1 $516 $268 $185 2 1 1 1 1 1 1 1 1 1 1 1 1 1 0 1 1 1 @3 eif #
name_attrib-gen-attrib $-1 -1 $517 $-1 $269 0 0 0 0 1 1 1 1 1 1 1 0 1 0 0 1 0 1 @4 bbox #
point $-1 -1 -1 $-1 0 -22.5 47.5 #
name_attrib-gen-attrib $-1 -1 $518 $-1 $270 0 0 0 0 1 1 1 1 1 1 1 0 1 0 0 1 0 1 @4 bbox #
point $-1 -1 -1 $-1 0 -27.5 47.5 #
real_attrib-name_attrib-gen-attrib $-1 -1 $519 $272 $10 0 0 0 0 1 1 1 1 1 1 1 0 1 0 0 1 0 1 @8 bboxzmax 52.5 #
edge $520 -1 -1 $-1 $401 0 $404 26 $274 $521 forward @7 unknown T 0 -27.5 47.5 0 -1.5 47.5 #
name_attrib-gen-attrib $-1 -1 $522 $-1 $275 0 0 0 0 1 1 1 1 1 1 1 0 1 0 0 1 0 1 @4 bbox #
vertex $523 -1 -1 $-1 $275 $524 #
straight-curve $-1 -1 -1 $-1 0 -27.5 52.5 0 0 -1 I I #
name_attrib-gen-attrib $-1 -1 $525 $-1 $276 0 0 0 0 1 1 1 1 1 1 1 0 1 0 0 1 0 1 @4 bbox #
vertex $526 -1 -1 $-1 $399 $527 #
straight-curve $-1 -1 -1 $-1 0 -1.5 47.5 0 -0 1 I I #
name_attrib-gen-attrib $-1 -1 $528 $277 $190 2 1 1 1 1 1 1 1 1 1 1 1 1 1 0 1 1 1 @3 eif #
name_attrib-gen-attrib $-1 -1 $529 $-1 $278 0 0 0 0 1 1 1 1 1 1 1 0 1 0 0 1 0 1 @4 bbox #
point $-1 -1 -1 $-1 0 -1.5 52.5 #
name_attrib-gen-attrib $-1 -1 $530 $-1 $279 0 0 0 0 1 1 1 1 1 1 1 0 1 0 0 1 0 1 @4 bbox #
point $-1 -1 -1 $-1 0 -27.5 52.5 #
real_attrib-name_attrib-gen-attrib $-1 -1 $531 $281 $1 0 0 0 0 1 1 1 1 1 1 1 0 1 0 0 1 0 1 @8 bboxzmin -52.5 #
name_attrib-gen-attrib $-1 -1 $532 $-1 $282 0 0 0 0 1 1 1 1 1 1 1 0 1 0 0 1 0 1 @4 bbox #
straight-curve $-1 -1 -1 $-1 0 27.5 -47.5 0 -1 0 I I #
name_attrib-gen-attrib $-1 -1 $533 $283 $194 2 1 1 1 1 1 1 1 1 1 1 1 1 1 0 1 1 1 @3 eif #
name_attrib-gen-attrib $-1 -1 $534 $-1 $284 0 0 0 0 1 1 1 1 1 1 1 0 1 0 0 1 0 1 @4 bbox #
point $-1 -1 -1 $-1 0 27.5 -47.5 #
name_attrib-gen-attrib $-1 -1 $535 $286 $195 2 1 1 1 1 1 1 1 1 1 1 1 1 1 0 1 1 1 @3 eif #
name_attrib-gen-attrib $-1 -1 $536 $-1 $287 0 0 0 0 1 1 1 1 1 1 1 0 1 0 0 1 0 1 @4 bbox #
point $-1 -1 -1 $-1 0 1.5 -47.5 #
integer_attrib-name_attrib-gen-attrib $-1 -1 $-1 $289 $145 2 1 1 1 1 1 1 1 1 1 1 1 1 1 0 1 1 1 @3 pid 1 #
integer_attrib-name_attrib-gen-attrib $-1 -1 $-1 $290 $197 2 1 1 1 1 1 1 1 1 1 1 1 1 1 0 1 1 1 @3 pid 1 #
integer_attrib-name_attrib-gen-attrib $-1 -1 $-1 $292 $198 2 1 1 1 1 1 1 1 1 1 1 1 1 1 0 1 1 1 @3 pid 2 #
real_attrib-name_attrib-gen-attrib $-1 -1 $537 $294 $2 0 0 0 0 1 1 1 1 1 1 1 0 1 0 0 1 0 1 @8 bboxzmin -47.5 #
name_attrib-gen-attrib $-1 -1 $538 $-1 $295 0 0 0 0 1 1 1 1 1 1 1 0 1 0 0 1 0 1 @4 bbox #
straight-curve $-1 -1 -1 $-1 0 27.5 -26.5 0 -1 0 I I #
name_attrib-gen-attrib $-1 -1 $539 $296 $203 2 1 1 1 1 1 1 1 1 1 1 1 1 1 0 1 1 1 @3 eif #
name_attrib-gen-attrib $-1 -1 $540 $-1 $297 0 0 0 0 1 1 1 1 1 1 1 0 1 0 0 1 0 1 @4 bbox #
point $-1 -1 -1 $-1 0 27.5 -26.5 #
name_attrib-gen-attrib $-1 -1 $541 $299 $204 2 1 1 1 1 1 1 1 1 1 1 1 1 1 0 1 1 1 @3 eif #
name_attrib-gen-attrib $-1 -1 $542 $-1 $300 0 0 0 0 1 1 1 1 1 1 1 0 1 0 0 1 0 1 @4 bbox #
point $-1 -1 -1 $-1 0 22.5 -26.5 #
integer_attrib-name_attrib-gen-attrib $-1 -1 $-1 $302 $150 2 1 1 1 1 1 1 1 1 1 1 1 1 1 0 1 1 1 @3 pid 1 #
integer_attrib-name_attrib-gen-attrib $-1 -1 $-1 $303 $206 2 1 1 1 1 1 1 1 1 1 1 1 1 1 0 1 1 1 @3 pid 1 #
integer_attrib-name_attrib-gen-attrib $-1 -1 $-1 $305 $207 2 1 1 1 1 1 1 1 1 1 1 1 1 1 0 1 1 1 @3 pid 2 #
real_attrib-name_attrib-gen-attrib $-1 -1 $543 $307 $3 0 0 0 0 1 1 1 1 1 1 1 0 1 0 0 1 0 1 @8 bboxzmin -23.5 #
name_attrib-gen-attrib $-1 -1 $544 $-1 $308 0 0 0 0 1 1 1 1 1 1 1 0 1 0 0 1 0 1 @4 bbox #
straight-curve $-1 -1 -1 $-1 0 27.5 23.5 0 -1 0 I I #
name_attrib-gen-attrib $-1 -1 $545 $309 $212 2 1 1 1 1 1 1 1 1 1 1 1 1 1 0 1 1 1 @3 eif #
name_attrib-gen-attrib $-1 -1 $546 $-1 $310 0 0 0 0 1 1 1 1 1 1 1 0 1 0 0 1 0 1 @4 bbox #
point $-1 -1 -1 $-1 0 27.5 23.5 #
name_attrib-gen-attrib $-1 -1 $547 $312 $213 2 1 1 1 1 1 1 1 1 1 1 1 1 1 0 1 1 1 @3 eif #
name_attrib-gen-attrib $-1 -1 $548 $-1 $313 0 0 0 0 1 1 1 1 1 1 1 0 1 0 0 1 0 1 @4 bbox #
point $-1 -1 -1 $-1 0 22.5 23.5 #
integer_attrib-name_attrib-gen-attrib $-1 -1 $-1 $315 $155 2 1 1 1 1 1 1 1 1 1 1 1 1 1 0 1 1 1 @3 pid 1 #
integer_attrib-name_attrib-gen-attrib $-1 -1 $-1 $316 $215 2 1 1 1 1 1 1 1 1 1 1 1 1 1 0 1 1 1 @3 pid 1 #
integer_attrib-name_attrib-gen-attrib $-1 -1 $-1 $318 $216 2 1 1 1 1 1 1 1 1 1 1 1 1 1 0 1 1 1 @3 pid 2 #
real_attrib-name_attrib-gen-attrib $-1 -1 $549 $320 $4 0 0 0 0 1 1 1 1 1 1 1 0 1 0 0 1 0 1 @8 bboxzmin 47.5 #
name_attrib-gen-attrib $-1 -1 $550 $-1 $321 0 0 0 0 1 1 1 1 1 1 1 0 1 0 0 1 0 1 @4 bbox #
straight-curve $-1 -1 -1 $-1 0 27.5 47.5 0 -1 0 I I #
name_attrib-gen-attrib $-1 -1 $551 $322 $221 2 1 1 1 1 1 1 1 1 1 1 1 1 1 0 1 1 1 @3 eif #
name_attrib-gen-attrib $-1 -1 $552 $-1 $323 0 0 0 0 1 1 1 1 1 1 1 0 1 0 0 1 0 1 @4 bbox #
point $-1 -1 -1 $-1 0 1.5 47.5 #
name_attrib-gen-attrib $-1 -1 $553 $325 $222 2 1 1 1 1 1 1 1 1 1 1 1 1 1 0 1 1 1 @3 eif #
name_attrib-gen-attrib $-1 -1 $554 $-1 $326 0 0 0 0 1 1 1 1 1 1 1 0 1 0 0 1 0 1 @4 bbox #
point $-1 -1 -1 $-1 0 27.5 47.5 #
integer_attrib-name_attrib-gen-attrib $-1 -1 $-1 $328 $160 2 1 1 1 1 1 1 1 1 1 1 1 1 1 0 1 1 1 @3 pid 1 #
integer_attrib-name_attrib-gen-attrib $-1 -1 $-1 $329 $224 2 1 1 1 1 1 1 1 1 1 1 1 1 1 0 1 1 1 @3 pid 1 #
integer_attrib-name_attrib-gen-attrib $-1 -1 $-1 $331 $225 2 1 1 1 1 1 1 1 1 1 1 1 1 1 0 1 1 1 @3 pid 2 #
real_attrib-name_attrib-gen-attrib $-1 -1 $555 $333 $5 0 0 0 0 1 1 1 1 1 1 1 0 1 0 0 1 0 1 @8 bboxzmin 26.5 #
name_attrib-gen-attrib $-1 -1 $556 $-1 $334 0 0 0 0 1 1 1 1 1 1 1 0 1 0 0 1 0 1 @4 bbox #
straight-curve $-1 -1 -1 $-1 0 27.5 26.5 0 -1 0 I I #
name_attrib-gen-attrib $-1 -1 $557 $335 $230 2 1 1 1 1 1 1 1 1 1 1 1 1 1 0 1 1 1 @3 eif #
name_attrib-gen-attrib $-1 -1 $558 $-1 $336 0 0 0 0 1 1 1 1 1 1 1 0 1 0 0 1 0 1 @4 bbox #
point $-1 -1 -1 $-1 0 22.5 26.5 #
name_attrib-gen-attrib $-1 -1 $559 $338 $231 2 1 1 1 1 1 1 1 1 1 1 1 1 1 0 1 1 1 @3 eif #
name_attrib-gen-attrib $-1 -1 $560 $-1 $339 0 0 0 0 1 1 1 1 1 1 1 0 1 0 0 1 0 1 @4 bbox #
point $-1 -1 -1 $-1 0 27.5 26.5 #
integer_attrib-name_attrib-gen-attrib $-1 -1 $-1 $341 $165 2 1 1 1 1 1 1 1 1 1 1 1 1 1 0 1 1 1 @3 pid 1 #
integer_attrib-name_attrib-gen-attrib $-1 -1 $-1 $342 $233 2 1 1 1 1 1 1 1 1 1 1 1 1 1 0 1 1 1 @3 pid 1 #
integer_attrib-name_attrib-gen-attrib $-1 -1 $-1 $344 $234 2 1 1 1 1 1 1 1 1 1 1 1 1 1 0 1 1 1 @3 pid 2 #
real_attrib-name_attrib-gen-attrib $-1 -1 $561 $346 $6 0 0 0 0 1 1 1 1 1 1 1 0 1 0 0 1 0 1 @8 bboxzmin -52.5 #
name_attrib-gen-attrib $-1 -1 $562 $-1 $347 0 0 0 0 1 1 1 1 1 1 1 0 1 0 0 1 0 1 @4 bbox #
straight-curve $-1 -1 -1 $-1 0 -27.5 -47.5 0 1 0 I I #
name_attrib-gen-attrib $-1 -1 $563 $348 $239 2 1 1 1 1 1 1 1 1 1 1 1 1 1 0 1 1 1 @3 eif #
name_attrib-gen-attrib $-1 -1 $564 $-1 $349 0 0 0 0 1 1 1 1 1 1 1 0 1 0 0 1 0 1 @4 bbox #
point $-1 -1 -1 $-1 0 -1.5 -47.5 #
name_attrib-gen-attrib $-1 -1 $565 $351 $240 2 1 1 1 1 1 1 1 1 1 1 1 1 1 0 1 1 1 @3 eif #
name_attrib-gen-attrib $-1 -1 $566 $-1 $352 0 0 0 0 1 1 1 1 1 1 1 0 1 0 0 1 0 1 @4 bbox #
point $-1 -1 -1 $-1 0 -27.5 -47.5 #
integer_attrib-name_attrib-gen-attrib $-1 -1 $-1 $354 $170 2 1 1 1 1 1 1 1 1 1 1 1 1 1 0 1 1 1 @3 pid 1 #
integer_attrib-name_attrib-gen-attrib $-1 -1 $-1 $355 $242 2 1 1 1 1 1 1 1 1 1 1 1 1 1 0 1 1 1 @3 pid 1 #
integer_attrib-name_attrib-gen-attrib $-1 -1 $-1 $357 $243 2 1 1 1 1 1 1 1 1 1 1 1 1 1 0 1 1 1 @3 pid 2 #
real_attrib-name_attrib-gen-attrib $-1 -1 $567 $359 $7 0 0 0 0 1 1 1 1 1 1 1 0 1 0 0 1 0 1 @8 bboxzmin -47.5 #
name_attrib-gen-attrib $-1 -1 $568 $-1 $360 0 0 0 0 1 1 1 1 1 1 1 0 1 0 0 1 0 1 @4 bbox #
straight-curve $-1 -1 -1 $-1 0 -27.5 -26.5 0 1 0 I I #
name_attrib-gen-attrib $-1 -1 $569 $361 $248 2 1 1 1 1 1 1 1 1 1 1 1 1 1 0 1 1 1 @3 eif #
name_attrib-gen-attrib $-1 -1 $570 $-1 $362 0 0 0 0 1 1 1 1 1 1 1 0 1 0 0 1 0 1 @4 bbox #
point $-1 -1 -1 $-1 0 -22.5 -26.5 #
name_attrib-gen-attrib $-1 -1 $571 $364 $249 2 1 1 1 1 1 1 1 1 1 1 1 1 1 0 1 1 1 @3 eif #
name_attrib-gen-attrib $-1 -1 $572 $-1 $365 0 0 0 0 1 1 1 1 1 1 1 0 1 0 0 1 0 1 @4 bbox #
point $-1 -1 -1 $-1 0 -27.5 -26.5 #
integer_attrib-name_attrib-gen-attrib $-1 -1 $-1 $367 $175 2 1 1 1 1 1 1 1 1 1 1 1 1 1 0 1 1 1 @3 pid 1 #
integer_attrib-name_attrib-gen-attrib $-1 -1 $-1 $368 $251 2 1 1 1 1 1 1 1 1 1 1 1 1 1 0 1 1 1 @3 pid 1 #
integer_attrib-name_attrib-gen-attrib $-1 -1 $-1 $370 $252 2 1 1 1 1 1 1 1 1 1 1 1 1 1 0 1 1 1 @3 pid 2 #
real_attrib-name_attrib-gen-attrib $-1 -1 $573 $372 $8 0 0 0 0 1 1 1 1 1 1 1 0 1 0 0 1 0 1 @8 bboxzmin -23.5 #
name_attrib-gen-attrib $-1 -1 $574 $-1 $373 0 0 0 0 1 1 1 1 1 1 1 0 1 0 0 1 0 1 @4 bbox #
straight-curve $-1 -1 -1 $-1 0 -27.5 23.5 0 1 0 I I #
name_attrib-gen-attrib $-1 -1 $575 $374 $257 2 1 1 1 1 1 1 1 1 1 1 1 1 1 0 1 1 1 @3 eif #
name_attrib-gen-attrib $-1 -1 $576 $-1 $375 0 0 0 0 1 1 1 1 1 1 1 0 1 0 0 1 0 1 @4 bbox #
point $-1 -1 -1 $-1 0 -22.5 23.5 #
name_attrib-gen-attrib $-1 -1 $577 $377 $258 2 1 1 1 1 1 1 1 1 1 1 1 1 1 0 1 1 1 @3 eif #
name_attrib-gen-attrib $-1 -1 $578 $-1 $378 0 0 0 0 1 1 1 1 1 1 1 0 1 0 0 1 0 1 @4 bbox #
point $-1 -1 -1 $-1 0 -27.5 23.5 #
integer_attrib-name_attrib-gen-attrib $-1 -1 $-1 $380 $180 2 1 1 1 1 1 1 1 1 1 1 1 1 1 0 1 1 1 @3 pid 1 #
integer_attrib-name_attrib-gen-attrib $-1 -1 $-1 $381 $260 2 1 1 1 1 1 1 1 1 1 1 1 1 1 0 1 1 1 @3 pid 1 #
integer_attrib-name_attrib-gen-attrib $-1 -1 $-1 $383 $261 2 1 1 1 1 1 1 1 1 1 1 1 1 1 0 1 1 1 @3 pid 2 #
real_attrib-name_attrib-gen-attrib $-1 -1 $579 $385 $9 0 0 0 0 1 1 1 1 1 1 1 0 1 0 0 1 0 1 @8 bboxzmin 26.5 #
name_attrib-gen-attrib $-1 -1 $580 $-1 $386 0 0 0 0 1 1 1 1 1 1 1 0 1 0 0 1 0 1 @4 bbox #
straight-curve $-1 -1 -1 $-1 0 -27.5 26.5 0 1 0 I I #
name_attrib-gen-attrib $-1 -1 $581 $387 $266 2 1 1 1 1 1 1 1 1 1 1 1 1 1 0 1 1 1 @3 eif #
name_attrib-gen-attrib $-1 -1 $582 $-1 $388 0 0 0 0 1 1 1 1 1 1 1 0 1 0 0 1 0 1 @4 bbox #
point $-1 -1 -1 $-1 0 -27.5 26.5 #
name_attrib-gen-attrib $-1 -1 $583 $390 $267 2 1 1 1 1 1 1 1 1 1 1 1 1 1 0 1 1 1 @3 eif #
name_attrib-gen-attrib $-1 -1 $584 $-1 $391 0 0 0 0 1 1 1 1 1 1 1 0 1 0 0 1 0 1 @4 bbox #
point $-1 -1 -1 $-1 0 -22.5 26.5 #
integer_attrib-name_attrib-gen-attrib $-1 -1 $-1 $393 $185 2 1 1 1 1 1 1 1 1 1 1 1 1 1 0 1 1 1 @3 pid 1 #
integer_attrib-name_attrib-gen-attrib $-1 -1 $-1 $394 $269 2 1 1 1 1 1 1 1 1 1 1 1 1 1 0 1 1 1 @3 pid 1 #
integer_attrib-name_attrib-gen-attrib $-1 -1 $-1 $396 $270 2 1 1 1 1 1 1 1 1 1 1 1 1 1 0 1 1 1 @3 pid 2 #
real_attrib-name_attrib-gen-attrib $-1 -1 $585 $398 $10 0 0 0 0 1 1 1 1 1 1 1 0 1 0 0 1 0 1 @8 bboxzmin 47.5 #
name_attrib-gen-attrib $-1 -1 $586 $-1 $399 0 0 0 0 1 1 1 1 1 1 1 0 1 0 0 1 0 1 @4 bbox #
straight-curve $-1 -1 -1 $-1 0 -27.5 47.5 0 1 0 I I #
name_attrib-gen-attrib $-1 -1 $587 $400 $275 2 1 1 1 1 1 1 1 1 1 1 1 1 1 0 1 1 1 @3 eif #
name_attrib-gen-attrib $-1 -1 $588 $-1 $401 0 0 0 0 1 1 1 1 1 1 1 0 1 0 0 1 0 1 @4 bbox #
point $-1 -1 -1 $-1 0 -27.5 47.5 #
name_attrib-gen-attrib $-1 -1 $589 $403 $276 2 1 1 1 1 1 1 1 1 1 1 1 1 1 0 1 1 1 @3 eif #
name_attrib-gen-attrib $-1 -1 $590 $-1 $404 0 0 0 0 1 1 1 1 1 1 1 0 1 0 0 1 0 1 @4 bbox #
point $-1 -1 -1 $-1 0 -1.5 47.5 #
integer_attrib-name_attrib-gen-attrib $-1 -1 $-1 $406 $190 2 1 1 1 1 1 1 1 1 1 1 1 1 1 0 1 1 1 @3 pid 1 #
integer_attrib-name_attrib-gen-attrib $-1 -1 $-1 $407 $278 2 1 1 1 1 1 1 1 1 1 1 1 1 1 0 1 1 1 @3 pid 1 #
integer_attrib-name_attrib-gen-attrib $-1 -1 $-1 $409 $279 2 1 1 1 1 1 1 1 1 1 1 1 1 1 0 1 1 1 @3 pid 2 #
real_attrib-name_attrib-gen-attrib $-1 -1 $591 $411 $1 0 0 0 0 1 1 1 1 1 1 1 0 1 0 0 1 0 1 @8 bboxymax 27.5 #
name_attrib-gen-attrib $-1 -1 $592 $412 $282 2 1 1 1 1 1 1 1 1 1 1 1 1 1 0 1 1 1 @3 eif #
integer_attrib-name_attrib-gen-attrib $-1 -1 $-1 $414 $194 2 1 1 1 1 1 1 1 1 1 1 1 1 1 0 1 1 1 @3 pid 2 #
integer_attrib-name_attrib-gen-attrib $-1 -1 $-1 $415 $284 2 1 1 1 1 1 1 1 1 1 1 1 1 1 0 1 1 1 @3 pid 3 #
integer_attrib-name_attrib-gen-attrib $-1 -1 $-1 $417 $195 2 1 1 1 1 1 1 1 1 1 1 1 1 1 0 1 1 1 @3 pid 4 #
integer_attrib-name_attrib-gen-attrib $-1 -1 $-1 $418 $287 2 1 1 1 1 1 1 1 1 1 1 1 1 1 0 1 1 1 @3 pid 4 #
real_attrib-name_attrib-gen-attrib $-1 -1 $593 $423 $2 0 0 0 0 1 1 1 1 1 1 1 0 1 0 0 1 0 1 @8 bboxymax 27.5 #
name_attrib-gen-attrib $-1 -1 $594 $424 $295 2 1 1 1 1 1 1 1 1 1 1 1 1 1 0 1 1 1 @3 eif #
integer_attrib-name_attrib-gen-attrib $-1 -1 $-1 $426 $203 2 1 1 1 1 1 1 1 1 1 1 1 1 1 0 1 1 1 @3 pid 2 #
integer_attrib-name_attrib-gen-attrib $-1 -1 $-1 $427 $297 2 1 1 1 1 1 1 1 1 1 1 1 1 1 0 1 1 1 @3 pid 3 #
integer_attrib-name_attrib-gen-attrib $-1 -1 $-1 $429 $204 2 1 1 1 1 1 1 1 1 1 1 1 1 1 0 1 1 1 @3 pid 4 #
integer_attrib-name_attrib-gen-attrib $-1 -1 $-1 $430 $300 2 1 1 1 1 1 1 1 1 1 1 1 1 1 0 1 1 1 @3 pid 4 #
real_attrib-name_attrib-gen-attrib $-1 -1 $595 $435 $3 0 0 0 0 1 1 1 1 1 1 1 0 1 0 0 1 0 1 @8 bboxymax 27.5 #
name_attrib-gen-attrib $-1 -1 $596 $436 $308 2 1 1 1 1 1 1 1 1 1 1 1 1 1 0 1 1 1 @3 eif #
integer_attrib-name_attrib-gen-attrib $-1 -1 $-1 $438 $212 2 1 1 1 1 1 1 1 1 1 1 1 1 1 0 1 1 1 @3 pid 2 #
integer_attrib-name_attrib-gen-attrib $-1 -1 $-1 $439 $310 2 1 1 1 1 1 1 1 1 1 1 1 1 1 0 1 1 1 @3 pid 3 #
integer_attrib-name_attrib-gen-attrib $-1 -1 $-1 $441 $213 2 1 1 1 1 1 1 1 1 1 1 1 1 1 0 1 1 1 @3 pid 4 #
integer_attrib-name_attrib-gen-attrib $-1 -1 $-1 $442 $313 2 1 1 1 1 1 1 1 1 1 1 1 1 1 0 1 1 1 @3 pid 4 #
real_attrib-name_attrib-gen-attrib $-1 -1 $597 $447 $4 0 0 0 0 1 1 1 1 1 1 1 0 1 0 0 1 0 1 @8 bboxymax 27.5 #
name_attrib-gen-attrib $-1 -1 $598 $448 $321 2 1 1 1 1 1 1 1 1 1 1 1 1 1 0 1 1 1 @3 eif #
integer_attrib-name_attrib-gen-attrib $-1 -1 $-1 $450 $221 2 1 1 1 1 1 1 1 1 1 1 1 1 1 0 1 1 1 @3 pid 4 #
integer_attrib-name_attrib-gen-attrib $-1 -1 $-1 $451 $323 2 1 1 1 1 1 1 1 1 1 1 1 1 1 0 1 1 1 @3 pid 4 #
integer_attrib-name_attrib-gen-attrib $-1 -1 $-1 $453 $222 2 1 1 1 1 1 1 1 1 1 1 1 1 1 0 1 1 1 @3 pid 2 #
integer_attrib-name_attrib-gen-attrib $-1 -1 $-1 $454 $326 2 1 1 1 1 1 1 1 1 1 1 1 1 1 0 1 1 1 @3 pid 3 #
real_attrib-name_attrib-gen-attrib $-1 -1 $599 $459 $5 0 0 0 0 1 1 1 1 1 1 1 0 1 0 0 1 0 1 @8 bboxymax 27.5 #
name_attrib-gen-attrib $-1 -1 $600 $460 $334 2 1 1 1 1 1 1 1 1 1 1 1 1 1 0 1 1 1 @3 eif #
integer_attrib-name_attrib-gen-attrib $-1 -1 $-1 $462 $230 2 1 1 1 1 1 1 1 1 1 1 1 1 1 0 1 1 1 @3 pid 4 #
integer_attrib-name_attrib-gen-attrib $-1 -1 $-1 $463 $336 2 1 1 1 1 1 1 1 1 1 1 1 1 1 0 1 1 1 @3 pid 4 #
integer_attrib-name_attrib-gen-attrib $-1 -1 $-1 $465 $231 2 1 1 1 1 1 1 1 1 1 1 1 1 1 0 1 1 1 @3 pid 2 #
integer_attrib-name_attrib-gen-attrib $-1 -1 $-1 $466 $339 2 1 1 1 1 1 1 1 1 1 1 1 1 1 0 1 1 1 @3 pid 3 #
real_attrib-name_attrib-gen-attrib $-1 -1 $601 $471 $6 0 0 0 0 1 1 1 1 1 1 1 0 1 0 0 1 0 1 @8 bboxymax -1.5 #
name_attrib-gen-attrib $-1 -1 $602 $472 $347 2 1 1 1 1 1 1 1 1 1 1 1 1 1 0 1 1 1 @3 eif #
integer_attrib-name_attrib-gen-attrib $-1 -1 $-1 $474 $239 2 1 1 1 1 1 1 1 1 1 1 1 1 1 0 1 1 1 @3 pid 4 #
integer_attrib-name_attrib-gen-attrib $-1 -1 $-1 $475 $349 2 1 1 1 1 1 1 1 1 1 1 1 1 1 0 1 1 1 @3 pid 4 #
integer_attrib-name_attrib-gen-attrib $-1 -1 $-1 $477 $240 2 1 1 1 1 1 1 1 1 1 1 1 1 1 0 1 1 1 @3 pid 2 #
integer_attrib-name_attrib-gen-attrib $-1 -1 $-1 $478 $352 2 1 1 1 1 1 1 1 1 1 1 1 1 1 0 1 1 1 @3 pid 3 #
real_attrib-name_attrib-gen-attrib $-1 -1 $603 $483 $7 0 0 0 0 1 1 1 1 1 1 1 0 1 0 0 1 0 1 @8 bboxymax -22.5 #
name_attrib-gen-attrib $-1 -1 $604 $484 $360 2 1 1 1 1 1 1 1 1 1 1 1 1 1 0 1 1 1 @3 eif #
integer_attrib-name_attrib-gen-attrib $-1 -1 $-1 $486 $248 2 1 1 1 1 1 1 1 1 1 1 1 1 1 0 1 1 1 @3 pid 4 #
integer_attrib-name_attrib-gen-attrib $-1 -1 $-1 $487 $362 2 1 1 1 1 1 1 1 1 1 1 1 1 1 0 1 1 1 @3 pid 4 #
integer_attrib-name_attrib-gen-attrib $-1 -1 $-1 $489 $249 2 1 1 1 1 1 1 1 1 1 1 1 1 1 0 1 1 1 @3 pid 2 #
integer_attrib-name_attrib-gen-attrib $-1 -1 $-1 $490 $365 2 1 1 1 1 1 1 1 1 1 1 1 1 1 0 1 1 1 @3 pid 3 #
real_attrib-name_attrib-gen-attrib $-1 -1 $605 $495 $8 0 0 0 0 1 1 1 1 1 1 1 0 1 0 0 1 0 1 @8 bboxymax -22.5 #
name_attrib-gen-attrib $-1 -1 $606 $496 $373 2 1 1 1 1 1 1 1 1 1 1 1 1 1 0 1 1 1 @3 eif #
integer_attrib-name_attrib-gen-attrib $-1 -1 $-1 $498 $257 2 1 1 1 1 1 1 1 1 1 1 1 1 1 0 1 1 1 @3 pid 4 #
integer_attrib-name_attrib-gen-attrib $-1 -1 $-1 $499 $375 2 1 1 1 1 1 1 1 1 1 1 1 1 1 0 1 1 1 @3 pid 4 #
integer_attrib-name_attrib-gen-attrib $-1 -1 $-1 $501 $258 2 1 1 1 1 1 1 1 1 1 1 1 1 1 0 1 1 1 @3 pid 2 #
integer_attrib-name_attrib-gen-attrib $-1 -1 $-1 $502 $378 2 1 1 1 1 1 1 1 1 1 1 1 1 1 0 1 1 1 @3 pid 3 #
real_attrib-name_attrib-gen-attrib $-1 -1 $607 $507 $9 0 0 0 0 1 1 1 1 1 1 1 0 1 0 0 1 0 1 @8 bboxymax -22.5 #
name_attrib-gen-attrib $-1 -1 $608 $508 $386 2 1 1 1 1 1 1 1 1 1 1 1 1 1 0 1 1 1 @3 eif #
integer_attrib-name_attrib-gen-attrib $-1 -1 $-1 $510 $266 2 1 1 1 1 1 1 1 1 1 1 1 1 1 0 1 1 1 @3 pid 2 #
integer_attrib-name_attrib-gen-attrib $-1 -1 $-1 $511 $388 2 1 1 1 1 1 1 1 1 1 1 1 1 1 0 1 1 1 @3 pid 3 #
integer_attrib-name_attrib-gen-attrib $-1 -1 $-1 $513 $267 2 1 1 1 1 1 1 1 1 1 1 1 1 1 0 1 1 1 @3 pid 4 #
integer_attrib-name_attrib-gen-attrib $-1 -1 $-1 $514 $391 2 1 1 1 1 1 1 1 1 1 1 1 1 1 0 1 1 1 @3 pid 4 #
real_attrib-name_attrib-gen-attrib $-1 -1 $609 $519 $10 0 0 0 0 1 1 1 1 1 1 1 0 1 0 0 1 0 1 @8 bboxymax -1.5 #
name_attrib-gen-attrib $-1 -1 $610 $520 $399 2 1 1 1 1 1 1 1 1 1 1 1 1 1 0 1 1 1 @3 eif #
integer_attrib-name_attrib-gen-attrib $-1 -1 $-1 $522 $275 2 1 1 1 1 1 1 1 1 1 1 1 1 1 0 1 1 1 @3 pid 2 #
integer_attrib-name_attrib-gen-attrib $-1 -1 $-1 $523 $401 2 1 1 1 1 1 1 1 1 1 1 1 1 1 0 1 1 1 @3 pid 3 #
integer_attrib-name_attrib-gen-attrib $-1 -1 $-1 $525 $276 2 1 1 1 1 1 1 1 1 1 1 1 1 1 0 1 1 1 @3 pid 4 #
integer_attrib-name_attrib-gen-attrib $-1 -1 $-1 $526 $404 2 1 1 1 1 1 1 1 1 1 1 1 1 1 0 1 1 1 @3 pid 4 #
real_attrib-name_attrib-gen-attrib $-1 -1 $611 $531 $1 0 0 0 0 1 1 1 1 1 1 1 0 1 0 0 1 0 1 @8 bboxymin 1.5 #
integer_attrib-name_attrib-gen-attrib $-1 -1 $-1 $532 $282 2 1 1 1 1 1 1 1 1 1 1 1 1 1 0 1 1 1 @3 pid 3 #
real_attrib-name_attrib-gen-attrib $-1 -1 $612 $537 $2 0 0 0 0 1 1 1 1 1 1 1 0 1 0 0 1 0 1 @8 bboxymin 22.5 #
integer_attrib-name_attrib-gen-attrib $-1 -1 $-1 $538 $295 2 1 1 1 1 1 1 1 1 1 1 1 1 1 0 1 1 1 @3 pid 3 #
real_attrib-name_attrib-gen-attrib $-1 -1 $613 $543 $3 0 0 0 0 1 1 1 1 1 1 1 0 1 0 0 1 0 1 @8 bboxymin 22.5 #
integer_attrib-name_attrib-gen-attrib $-1 -1 $-1 $544 $308 2 1 1 1 1 1 1 1 1 1 1 1 1 1 0 1 1 1 @3 pid 3 #
real_attrib-name_attrib-gen-attrib $-1 -1 $614 $549 $4 0 0 0 0 1 1 1 1 1 1 1 0 1 0 0 1 0 1 @8 bboxymin 1.5 #
integer_attrib-name_attrib-gen-attrib $-1 -1 $-1 $550 $321 2 1 1 1 1 1 1 1 1 1 1 1 1 1 0 1 1 1 @3 pid 3 #
real_attrib-name_attrib-gen-attrib $-1 -1 $615 $555 $5 0 0 0 0 1 1 1 1 1 1 1 0 1 0 0 1 0 1 @8 bboxymin 22.5 #
integer_attrib-name_attrib-gen-attrib $-1 -1 $-1 $556 $334 2 1 1 1 1 1 1 1 1 1 1 1 1 1 0 1 1 1 @3 pid 3 #
real_attrib-name_attrib-gen-attrib $-1 -1 $616 $561 $6 0 0 0 0 1 1 1 1 1 1 1 0 1 0 0 1 0 1 @8 bboxymin -27.5 #
integer_attrib-name_attrib-gen-attrib $-1 -1 $-1 $562 $347 2 1 1 1 1 1 1 1 1 1 1 1 1 1 0 1 1 1 @3 pid 3 #
real_attrib-name_attrib-gen-attrib $-1 -1 $617 $567 $7 0 0 0 0 1 1 1 1 1 1 1 0 1 0 0 1 0 1 @8 bboxymin -27.5 #
integer_attrib-name_attrib-gen-attrib $-1 -1 $-1 $568 $360 2 1 1 1 1 1 1 1 1 1 1 1 1 1 0 1 1 1 @3 pid 3 #
real_attrib-name_attrib-gen-attrib $-1 -1 $618 $573 $8 0 0 0 0 1 1 1 1 1 1 1 0 1 0 0 1 0 1 @8 bboxymin -27.5 #
integer_attrib-name_attrib-gen-attrib $-1 -1 $-1 $574 $373 2 1 1 1 1 1 1 1 1 1 1 1 1 1 0 1 1 1 @3 pid 3 #
real_attrib-name_attrib-gen-attrib $-1 -1 $619 $579 $9 0 0 0 0 1 1 1 1 1 1 1 0 1 0 0 1 0 1 @8 bboxymin -27.5 #
integer_attrib-name_attrib-gen-attrib $-1 -1 $-1 $580 $386 2 1 1 1 1 1 1 1 1 1 1 1 1 1 0 1 1 1 @3 pid 3 #
real_attrib-name_attrib-gen-attrib $-1 -1 $620 $585 $10 0 0 0 0 1 1 1 1 1 1 1 0 1 0 0 1 0 1 @8 bboxymin -27.5 #
integer_attrib-name_attrib-gen-attrib $-1 -1 $-1 $586 $399 2 1 1 1 1 1 1 1 1 1 1 1 1 1 0 1 1 1 @3 pid 3 #
real_attrib-name_attrib-gen-attrib $-1 -1 $621 $591 $1 0 0 0 0 1 1 1 1 1 1 1 0 1 0 0 1 0 1 @8 bboxxmax 0 #
real_attrib-name_attrib-gen-attrib $-1 -1 $622 $593 $2 0 0 0 0 1 1 1 1 1 1 1 0 1 0 0 1 0 1 @8 bboxxmax 0 #
real_attrib-name_attrib-gen-attrib $-1 -1 $623 $595 $3 0 0 0 0 1 1 1 1 1 1 1 0 1 0 0 1 0 1 @8 bboxxmax 0 #
real_attrib-name_attrib-gen-attrib $-1 -1 $624 $597 $4 0 0 0 0 1 1 1 1 1 1 1 0 1 0 0 1 0 1 @8 bboxxmax 0 #
real_attrib-name_attrib-gen-attrib $-1 -1 $625 $599 $5 0 0 0 0 1 1 1 1 1 1 1 0 1 0 0 1 0 1 @8 bboxxmax 0 #
real_attrib-name_attrib-gen-attrib $-1 -1 $626 $601 $6 0 0 0 0 1 1 1 1 1 1 1 0 1 0 0 1 0 1 @8 bboxxmax 0 #
real_attrib-name_attrib-gen-attrib $-1 -1 $627 $603 $7 0 0 0 0 1 1 1 1 1 1 1 0 1 0 0 1 0 1 @8 bboxxmax 0 #
real_attrib-name_attrib-gen-attrib $-1 -1 $628 $605 $8 0 0 0 0 1 1 1 1 1 1 1 0 1 0 0 1 0 1 @8 bboxxmax 0 #
real_attrib-name_attrib-gen-attrib $-1 -1 $629 $607 $9 0 0 0 0 1 1 1 1 1 1 1 0 1 0 0 1 0 1 @8 bboxxmax 0 #
real_attrib-name_attrib-gen-attrib $-1 -1 $630 $609 $10 0 0 0 0 1 1 1 1 1 1 1 0 1 0 0 1 0 1 @8 bboxxmax 0 #
real_attrib-name_attrib-gen-attrib $-1 -1 $631 $611 $1 0 0 0 0 1 1 1 1 1 1 1 0 1 0 0 1 0 1 @8 bboxxmin 0 #
real_attrib-name_attrib-gen-attrib $-1 -1 $632 $612 $2 0 0 0 0 1 1 1 1 1 1 1 0 1 0 0 1 0 1 @8 bboxxmin 0 #
real_attrib-name_attrib-gen-attrib $-1 -1 $633 $613 $3 0 0 0 0 1 1 1 1 1 1 1 0 1 0 0 1 0 1 @8 bboxxmin 0 #
real_attrib-name_attrib-gen-attrib $-1 -1 $634 $614 $4 0 0 0 0 1 1 1 1 1 1 1 0 1 0 0 1 0 1 @8 bboxxmin 0 #
real_attrib-name_attrib-gen-attrib $-1 -1 $635 $615 $5 0 0 0 0 1 1 1 1 1 1 1 0 1 0 0 1 0 1 @8 bboxxmin 0 #
real_attrib-name_attrib-gen-attrib $-1 -1 $636 $616 $6 0 0 0 0 1 1 1 1 1 1 1 0 1 0 0 1 0 1 @8 bboxxmin 0 #
real_attrib-name_attrib-gen-attrib $-1 -1 $637 $617 $7 0 0 0 0 1 1 1 1 1 1 1 0 1 0 0 1 0 1 @8 bboxxmin 0 #
real_attrib-name_attrib-gen-attrib $-1 -1 $638 $618 $8 0 0 0 0 1 1 1 1 1 1 1 0 1 0 0 1 0 1 @8 bboxxmin 0 #
real_attrib-name_attrib-gen-attrib $-1 -1 $639 $619 $9 0 0 0 0 1 1 1 1 1 1 1 0 1 0 0 1 0 1 @8 bboxxmin 0 #
real_attrib-name_attrib-gen-attrib $-1 -1 $640 $620 $10 0 0 0 0 1 1 1 1 1 1 1 0 1 0 0 1 0 1 @8 bboxxmin 0 #
integer_attrib-name_attrib-gen-attrib $-1 -1 $641 $621 $1 0 0 0 0 1 1 1 1 1 1 1 0 1 0 0 1 0 1 @6 bboxnv 4 #
integer_attrib-name_attrib-gen-attrib $-1 -1 $642 $622 $2 0 0 0 0 1 1 1 1 1 1 1 0 1 0 0 1 0 1 @6 bboxnv 4 #
integer_attrib-name_attrib-gen-attrib $-1 -1 $643 $623 $3 0 0 0 0 1 1 1 1 1 1 1 0 1 0 0 1 0 1 @6 bboxnv 4 #
integer_attrib-name_attrib-gen-attrib $-1 -1 $644 $624 $4 0 0 0 0 1 1 1 1 1 1 1 0 1 0 0 1 0 1 @6 bboxnv 4 #
integer_attrib-name_attrib-gen-attrib $-1 -1 $645 $625 $5 0 0 0 0 1 1 1 1 1 1 1 0 1 0 0 1 0 1 @6 bboxnv 4 #
integer_attrib-name_attrib-gen-attrib $-1 -1 $646 $626 $6 0 0 0 0 1 1 1 1 1 1 1 0 1 0 0 1 0 1 @6 bboxnv 4 #
integer_attrib-name_attrib-gen-attrib $-1 -1 $647 $627 $7 0 0 0 0 1 1 1 1 1 1 1 0 1 0 0 1 0 1 @6 bboxnv 4 #
integer_attrib-name_attrib-gen-attrib $-1 -1 $648 $628 $8 0 0 0 0 1 1 1 1 1 1 1 0 1 0 0 1 0 1 @6 bboxnv 4 #
integer_attrib-name_attrib-gen-attrib $-1 -1 $649 $629 $9 0 0 0 0 1 1 1 1 1 1 1 0 1 0 0 1 0 1 @6 bboxnv 4 #
integer_attrib-name_attrib-gen-attrib $-1 -1 $650 $630 $10 0 0 0 0 1 1 1 1 1 1 1 0 1 0 0 1 0 1 @6 bboxnv 4 #
integer_attrib-name_attrib-gen-attrib $-1 -1 $651 $631 $1 0 0 0 0 1 1 1 1 1 1 1 0 1 0 0 1 0 1 @6 bboxne 4 #
integer_attrib-name_attrib-gen-attrib $-1 -1 $652 $632 $2 0 0 0 0 1 1 1 1 1 1 1 0 1 0 0 1 0 1 @6 bboxne 4 #
integer_attrib-name_attrib-gen-attrib $-1 -1 $653 $633 $3 0 0 0 0 1 1 1 1 1 1 1 0 1 0 0 1 0 1 @6 bboxne 4 #
integer_attrib-name_attrib-gen-attrib $-1 -1 $654 $634 $4 0 0 0 0 1 1 1 1 1 1 1 0 1 0 0 1 0 1 @6 bboxne 4 #
integer_attrib-name_attrib-gen-attrib $-1 -1 $655 $635 $5 0 0 0 0 1 1 1 1 1 1 1 0 1 0 0 1 0 1 @6 bboxne 4 #
integer_attrib-name_attrib-gen-attrib $-1 -1 $656 $636 $6 0 0 0 0 1 1 1 1 1 1 1 0 1 0 0 1 0 1 @6 bboxne 4 #
integer_attrib-name_attrib-gen-attrib $-1 -1 $657 $637 $7 0 0 0 0 1 1 1 1 1 1 1 0 1 0 0 1 0 1 @6 bboxne 4 #
integer_attrib-name_attrib-gen-attrib $-1 -1 $658 $638 $8 0 0 0 0 1 1 1 1 1 1 1 0 1 0 0 1 0 1 @6 bboxne 4 #
integer_attrib-name_attrib-gen-attrib $-1 -1 $659 $639 $9 0 0 0 0 1 1 1 1 1 1 1 0 1 0 0 1 0 1 @6 bboxne 4 #
integer_attrib-name_attrib-gen-attrib $-1 -1 $660 $640 $10 0 0 0 0 1 1 1 1 1 1 1 0 1 0 0 1 0 1 @6 bboxne 4 #
integer_attrib-name_attrib-gen-attrib $-1 -1 $661 $641 $1 0 0 0 0 1 1 1 1 1 1 1 0 1 0 0 1 0 1 @6 bboxnf 1 #
integer_attrib-name_attrib-gen-attrib $-1 -1 $662 $642 $2 0 0 0 0 1 1 1 1 1 1 1 0 1 0 0 1 0 1 @6 bboxnf 1 #
integer_attrib-name_attrib-gen-attrib $-1 -1 $663 $643 $3 0 0 0 0 1 1 1 1 1 1 1 0 1 0 0 1 0 1 @6 bboxnf 1 #
integer_attrib-name_attrib-gen-attrib $-1 -1 $664 $644 $4 0 0 0 0 1 1 1 1 1 1 1 0 1 0 0 1 0 1 @6 bboxnf 1 #
integer_attrib-name_attrib-gen-attrib $-1 -1 $665 $645 $5 0 0 0 0 1 1 1 1 1 1 1 0 1 0 0 1 0 1 @6 bboxnf 1 #
integer_attrib-name_attrib-gen-attrib $-1 -1 $666 $646 $6 0 0 0 0 1 1 1 1 1 1 1 0 1 0 0 1 0 1 @6 bboxnf 1 #
integer_attrib-name_attrib-gen-attrib $-1 -1 $667 $647 $7 0 0 0 0 1 1 1 1 1 1 1 0 1 0 0 1 0 1 @6 bboxnf 1 #
integer_attrib-name_attrib-gen-attrib $-1 -1 $668 $648 $8 0 0 0 0 1 1 1 1 1 1 1 0 1 0 0 1 0 1 @6 bboxnf 1 #
integer_attrib-name_attrib-gen-attrib $-1 -1 $669 $649 $9 0 0 0 0 1 1 1 1 1 1 1 0 1 0 0 1 0 1 @6 bboxnf 1 #
integer_attrib-name_attrib-gen-attrib $-1 -1 $670 $650 $10 0 0 0 0 1 1 1 1 1 1 1 0 1 0 0 1 0 1 @6 bboxnf 1 #
integer_attrib-name_attrib-gen-attrib $-1 -1 $671 $651 $1 2 1 1 1 1 1 1 1 1 1 1 1 1 1 0 1 1 1 @3 noe 4 #
integer_attrib-name_attrib-gen-attrib $-1 -1 $672 $652 $2 2 1 1 1 1 1 1 1 1 1 1 1 1 1 0 1 1 1 @3 noe 4 #
integer_attrib-name_attrib-gen-attrib $-1 -1 $673 $653 $3 2 1 1 1 1 1 1 1 1 1 1 1 1 1 0 1 1 1 @3 noe 4 #
integer_attrib-name_attrib-gen-attrib $-1 -1 $674 $654 $4 2 1 1 1 1 1 1 1 1 1 1 1 1 1 0 1 1 1 @3 noe 4 #
integer_attrib-name_attrib-gen-attrib $-1 -1 $675 $655 $5 2 1 1 1 1 1 1 1 1 1 1 1 1 1 0 1 1 1 @3 noe 4 #
integer_attrib-name_attrib-gen-attrib $-1 -1 $676 $656 $6 2 1 1 1 1 1 1 1 1 1 1 1 1 1 0 1 1 1 @3 noe 4 #
integer_attrib-name_attrib-gen-attrib $-1 -1 $677 $657 $7 2 1 1 1 1 1 1 1 1 1 1 1 1 1 0 1 1 1 @3 noe 4 #
integer_attrib-name_attrib-gen-attrib $-1 -1 $678 $658 $8 2 1 1 1 1 1 1 1 1 1 1 1 1 1 0 1 1 1 @3 noe 4 #
integer_attrib-name_attrib-gen-attrib $-1 -1 $679 $659 $9 2 1 1 1 1 1 1 1 1 1 1 1 1 1 0 1 1 1 @3 noe 4 #
integer_attrib-name_attrib-gen-attrib $-1 -1 $680 $660 $10 2 1 1 1 1 1 1 1 1 1 1 1 1 1 0 1 1 1 @3 noe 4 #
integer_attrib-name_attrib-gen-attrib $-1 -1 $-1 $661 $1 2 1 1 1 1 1 1 1 1 1 1 1 1 1 0 1 1 1 @3 nof 1 #
integer_attrib-name_attrib-gen-attrib $-1 -1 $-1 $662 $2 2 1 1 1 1 1 1 1 1 1 1 1 1 1 0 1 1 1 @3 nof 1 #
integer_attrib-name_attrib-gen-attrib $-1 -1 $-1 $663 $3 2 1 1 1 1 1 1 1 1 1 1 1 1 1 0 1 1 1 @3 nof 1 #
integer_attrib-name_attrib-gen-attrib $-1 -1 $-1 $664 $4 2 1 1 1 1 1 1 1 1 1 1 1 1 1 0 1 1 1 @3 nof 1 #
integer_attrib-name_attrib-gen-attrib $-1 -1 $-1 $665 $5 2 1 1 1 1 1 1 1 1 1 1 1 1 1 0 1 1 1 @3 nof 1 #
integer_attrib-name_attrib-gen-attrib $-1 -1 $-1 $666 $6 2 1 1 1 1 1 1 1 1 1 1 1 1 1 0 1 1 1 @3 nof 1 #
integer_attrib-name_attrib-gen-attrib $-1 -1 $-1 $667 $7 2 1 1 1 1 1 1 1 1 1 1 1 1 1 0 1 1 1 @3 nof 1 #
integer_attrib-name_attrib-gen-attrib $-1 -1 $-1 $668 $8 2 1 1 1 1 1 1 1 1 1 1 1 1 1 0 1 1 1 @3 nof 1 #
integer_attrib-name_attrib-gen-attrib $-1 -1 $-1 $669 $9 2 1 1 1 1 1 1 1 1 1 1 1 1 1 0 1 1 1 @3 nof 1 #
integer_attrib-name_attrib-gen-attrib $-1 -1 $-1 $670 $10 2 1 1 1 1 1 1 1 1 1 1 1 1 1 0 1 1 1 @3 nof 1 #
End-of-ACIS-data 